<svg width="505" height="626" viewBox="0 0 505 626" fill="none" xmlns="http://www.w3.org/2000/svg">
<rect width="993" height="626" rx="16" fill="#F4F4F6"/>
<path d="M0 25.6C0 16.6392 0 12.1587 1.7439 8.73615C3.27787 5.72556 5.72556 3.27787 8.73615 1.7439C12.1587 0 16.6392 0 25.6 0H970.4C979.361 0 983.841 0 987.264 1.7439C990.274 3.27787 992.722 5.72556 994.256 8.73615C996 12.1587 996 16.6392 996 25.6V40H0V25.6Z" fill="#26272D"/>
<path fill-rule="evenodd" clip-rule="evenodd" d="M20 24C22.2091 24 24 22.2091 24 20C24 17.7909 22.2091 16 20 16C17.7909 16 16 17.7909 16 20C16 22.2091 17.7909 24 20 24Z" fill="#4B4D58"/>
<path fill-rule="evenodd" clip-rule="evenodd" d="M36 24C38.2091 24 40 22.2091 40 20C40 17.7909 38.2091 16 36 16C33.7909 16 32 17.7909 32 20C32 22.2091 33.7909 24 36 24Z" fill="#4B4D58"/>
<path fill-rule="evenodd" clip-rule="evenodd" d="M52 24C54.2091 24 56 22.2091 56 20C56 17.7909 54.2091 16 52 16C49.7909 16 48 17.7909 48 20C48 22.2091 49.7909 24 52 24Z" fill="#4B4D58"/>
</svg>
