<svg width="27" height="22" viewBox="0 0 27 22" fill="none" xmlns="http://www.w3.org/2000/svg">
<g clip-path="url(#clip0_161_1280)">
<path d="M4.12027 5.00389C3.08113 5.93125 2.70259 8.03248 4.576 9.2609L12.0507 14.3154L8.42598 6.13135C7.66669 4.20019 5.58916 3.77914 4.12101 5.00389" fill="#868898"/>
<path d="M10.5548 1.02516C9.33975 1.04967 7.51533 2.47563 8.32806 4.65334L12.0764 13.3664L13.3935 4.20193C13.6986 1.92471 11.9502 0.872984 10.5559 1.02516" fill="#868898"/>
<path d="M13.9755 3.85197H14.6847C14.6847 3.85197 15.0632 3.85197 15.1148 4.02792C14.8357 4.25254 14.0757 4.2807 14.1774 5.47985L15.369 13.365L19.0913 4.62896C19.8525 2.67806 18.2541 1.04907 16.8372 0.99932C16.7711 0.99493 16.7047 0.990906 16.6356 0.990906C15.3631 0.990906 13.905 1.90252 13.9762 3.85197" fill="#868898"/>
<path d="M18.9407 6.20582L15.4199 14.2904L22.8917 9.20916C24.614 8.00488 24.3364 6.07997 23.3741 5.12812C22.97 4.68035 22.2277 4.33429 21.4417 4.33429C20.5139 4.33429 19.5189 4.81973 18.9426 6.20472" fill="#868898"/>
<path d="M22.0561 10.3604L15.0394 15.1921H23.6791C25.4515 15.1921 26.5909 13.3904 26.0843 11.7373C25.7447 10.698 24.7427 9.88259 23.577 9.88116C23.0868 9.88116 22.5668 10.0275 22.0554 10.3607" fill="#868898"/>
<path d="M3.91733 15.1921H12.4297L5.4111 10.3604C3.78967 9.33385 1.96636 9.93456 1.30799 11.6407C0.751312 13.5917 2.14339 15.194 3.91733 15.194" fill="#868898"/>
<path d="M0.721436 18.6886C0.721436 19.5113 1.40393 21.009 4.00919 21.009C6.41185 21.009 7.17038 19.9225 7.17038 19.4242H5.3107C5.3107 19.4242 5.22238 20.0827 4.17322 20.0827C3.12407 20.0827 2.83942 19.2186 2.83942 18.7193C2.83942 18.22 3.12332 17.4046 4.17322 17.4046C5.22312 17.4046 5.3107 17.9778 5.3107 17.9778H7.17038C7.17038 17.4788 6.61371 16.4077 4.00919 16.4077C1.40467 16.4077 0.721436 18.0027 0.721436 18.6886Z" fill="#868898"/>
<path d="M20.2252 18.6886C20.2252 19.5113 20.9081 21.009 23.513 21.009C25.9152 21.009 26.6742 19.9225 26.6742 19.4242H24.816C24.816 19.4242 24.7273 20.0827 23.6778 20.0827C22.6282 20.0827 22.3417 19.219 22.3417 18.7197C22.3417 18.2203 22.626 17.4049 23.6778 17.4049C24.7295 17.4049 24.816 17.9778 24.816 17.9778H26.6745C26.6745 17.4788 26.1179 16.4077 23.5133 16.4077C20.9088 16.4077 20.2256 18.0027 20.2256 18.6886" fill="#868898"/>
<path d="M12.254 16.4845V19.2698L10.0897 16.4845H7.65479V20.8962H9.32405V18.0787L11.4506 20.8962H13.9234V16.4845H12.254Z" fill="#868898"/>
<path d="M17.6022 19.8423V19.8481H16.2113V19.0379H17.6022V19.0404C17.8991 19.0404 18.1389 19.2204 18.1389 19.4428C18.1389 19.6652 17.8991 19.8423 17.6022 19.8423ZM16.2239 17.3426H17.564V17.3445C17.7912 17.3445 17.9752 17.4908 17.9752 17.6737C17.9752 17.8566 17.7896 18.003 17.564 18.003V18.0048H16.2239V17.3426ZM18.968 18.5498C19.2719 18.5498 19.9073 18.2023 19.9073 17.5285C19.9073 16.5693 18.0951 16.4837 17.8171 16.4837H14.4771V20.8958H17.8171C19.4229 20.8958 20.068 20.3958 20.068 19.5606C20.068 18.7254 18.968 18.5506 18.968 18.5506V18.5498Z" fill="#868898"/>
</g>
<defs>
<clipPath id="clip0_161_1280">
<rect width="26.6906" height="20.0179" fill="white" transform="translate(0.309448 0.991028)"/>
</clipPath>
</defs>
</svg>
