<svg width="58" height="20" viewBox="0 0 58 20" fill="none" xmlns="http://www.w3.org/2000/svg">
<g clip-path="url(#clip0_161_1278)">
<path d="M2.94595 6.90858C2.94595 7.61333 3.13045 7.66536 3.91321 7.69424V7.93687H0.877229V7.69999C1.50343 7.69999 1.68794 7.59024 1.68794 6.91438V2.36226C1.68794 1.65749 1.50343 1.59972 0.899594 1.57661V1.34554H6.2503V2.81285H5.99311C5.78065 2.0792 5.51786 1.83657 4.25986 1.83657H3.287C2.9739 1.83657 2.92358 1.88856 2.92358 2.18317V4.29748H4.0418C5.05939 4.29748 5.27185 4.10685 5.38368 3.43096H5.6185V5.78789H5.38368C5.24949 5.00225 4.85811 4.78273 4.0418 4.78273H2.92358V6.92012L2.94595 6.90858ZM9.29186 6.90858C9.29186 7.61333 9.47078 7.66536 10.2592 7.69424V7.93687H7.06103V7.69999C7.82139 7.69999 8.03388 7.59024 8.03388 6.91438V2.36226C8.03388 1.65749 7.8773 1.59972 7.06103 1.57661V1.34554H10.2592V1.59394C9.49874 1.59394 9.29186 1.69793 9.29186 2.37959V6.90858ZM16.8902 2.5009C16.8902 1.84812 16.7337 1.57661 16.0012 1.49574V1.25311H18.2824V1.49574C17.5723 1.57661 17.3878 1.84235 17.3878 2.5009V8.04662H17.0635L12.6633 2.78974V6.66019C12.6633 7.31298 12.8199 7.5787 13.5523 7.66536V7.90799H11.26V7.66536C11.97 7.5845 12.1545 7.31872 12.1545 6.66019V2.21206C12.0716 2.03139 11.9464 1.87496 11.7902 1.75694C11.6339 1.63892 11.4517 1.56303 11.26 1.53618V1.29355H13.0156L16.8678 5.91498V2.5009H16.8902ZM20.3232 5.53371L21.296 2.90527L22.2633 5.53371H20.3232ZM24.9359 7.91373V7.69999C24.4326 7.69999 24.3376 7.50938 24.0972 6.88549L21.816 1.13758H21.5029L19.1435 7.07035C19.0907 7.24633 18.9867 7.40124 18.8456 7.51394C18.7045 7.62665 18.5332 7.69158 18.3551 7.69999V7.94262H20.4182V7.69999C19.9709 7.69999 19.764 7.59024 19.764 7.26675C19.8501 6.85205 19.9717 6.44604 20.1275 6.05363H22.4646C22.6332 6.44374 22.7644 6.85009 22.8559 7.26675C22.8559 7.59024 22.6211 7.69999 22.1738 7.69999V7.94262L24.9359 7.91373ZM31.2091 2.5009C31.2091 1.84812 31.0525 1.57661 30.3201 1.49574V1.25311H32.6013V1.49574C31.8912 1.57661 31.7067 1.84235 31.7067 2.5009V8.04662H31.3712L26.971 2.78974V6.66019C26.971 7.31298 27.1276 7.5787 27.86 7.66536V7.90799H25.5677V7.66536C26.2777 7.5845 26.4566 7.31872 26.4566 6.66019V2.21206C26.3777 2.02957 26.2543 1.87136 26.0985 1.75289C25.9426 1.63443 25.7598 1.55975 25.5677 1.53618V1.29355H27.3233L31.1755 5.91498L31.2091 2.5009ZM39.3609 6.37135C39.0925 6.91645 38.6775 7.36999 38.1658 7.67737C37.654 7.98482 37.0672 8.13304 36.4759 8.10439C34.3793 8.10439 33.1212 6.69484 33.1212 4.55743C33.1212 4.09736 33.2098 3.64188 33.3818 3.21754C33.5539 2.79321 33.806 2.40852 34.1235 2.0859C34.441 1.76328 34.8174 1.50919 35.2309 1.33843C35.6444 1.16768 36.0866 1.08369 36.5318 1.09136C37.1376 1.16635 37.7349 1.30177 38.3154 1.49574C38.4943 1.49574 38.5502 1.38598 38.7347 1.09136H39.0702L39.1988 3.30965H38.936C38.5446 2.28138 37.8905 1.52462 36.7555 1.52462C35.2347 1.52462 34.5749 3.25766 34.5749 4.49967C34.5749 6.29047 35.3074 7.50938 36.9344 7.50938C37.3882 7.48352 37.829 7.3437 38.2187 7.10214C38.6084 6.86057 38.9352 6.52446 39.1709 6.12295L39.3609 6.37135ZM42.4529 6.89123C42.4529 7.59604 42.6373 7.64801 43.4257 7.6769V7.91953H40.2276V7.69999C40.9879 7.6711 41.1948 7.59024 41.1948 6.91438V2.36803C41.1948 1.66326 41.0103 1.6055 40.2276 1.58239V1.34554H43.4257V1.59394C42.6653 1.59394 42.4529 1.69793 42.4529 2.37959V6.89123ZM46.0703 5.53949L47.0431 2.91105L48.0104 5.53949H46.0703ZM50.683 7.91953V7.69999C50.1798 7.69999 50.0791 7.50938 49.8443 6.88549L47.5631 1.14335H47.2556L44.8906 7.07609C44.8369 7.25107 44.7324 7.40473 44.5914 7.51631C44.4505 7.62789 44.2797 7.69199 44.1022 7.69999V7.94262H46.1765V7.69999C45.7292 7.69999 45.5224 7.59024 45.5224 7.26675C45.6084 6.85205 45.73 6.44604 45.8858 6.05363H48.2173C48.3878 6.44356 48.5208 6.84992 48.6143 7.26675C48.6143 7.59024 48.3794 7.69999 47.9321 7.69999V7.94262L50.683 7.91953ZM51.2421 7.91953V7.69999C51.8459 7.6711 52.0304 7.59024 52.0304 6.91438V2.36226C52.0304 1.65749 51.8459 1.6055 51.2421 1.57661V1.34554H54.2053V1.58817C53.4953 1.58817 53.3164 1.69793 53.3164 2.37381V7.05301C53.3164 7.46315 53.417 7.59604 54.1271 7.59604C55.2789 7.59604 55.961 7.3823 56.5089 6.2096H56.7605L56.3132 8.00039H51.2029V7.94262L51.2421 7.91953ZM2.24147 18.4564C2.97949 18.4564 3.15841 18.3524 3.15841 17.6707V12.5525H2.37006C1.63762 12.5525 1.32452 12.8818 1.11206 13.7657H0.849274L1.00582 12.0326H6.66962L6.8262 13.7657H6.56341C6.35092 12.8471 6.0602 12.5525 5.3054 12.5525H4.51705V17.6707C4.51705 18.3755 4.70156 18.4333 5.434 18.4564V18.7048H2.3421V18.4564H2.24147ZM9.68883 17.6707C9.68883 18.3755 9.87336 18.4333 10.6561 18.4564V18.7048H7.458V18.4564C8.21835 18.4564 8.43084 18.3524 8.43084 17.6707V13.1244C8.43084 12.4197 8.24631 12.3619 7.458 12.3387V12.0904H10.6561V12.3215C9.8957 12.3215 9.68883 12.4312 9.68883 13.1071V17.6707ZM17.4214 12.0383H19.6578V12.281C19.054 12.281 18.8751 12.3908 18.8751 13.0666V17.6476C18.8751 18.3524 19.054 18.4044 19.6578 18.4333V18.6759H16.7281V18.4333C17.3598 18.4333 17.5388 18.3235 17.5388 17.6476V12.9684L15.3862 18.7914H15.0507L12.9261 12.9684V17.4628C12.9261 18.1098 13.0827 18.3813 13.8151 18.4622V18.7106H11.5115V18.4622C12.2216 18.3813 12.4006 18.1156 12.4006 17.4628V12.8991C12.4006 12.4428 12.2216 12.2752 11.5115 12.2752V12.0326H13.8431L15.5539 16.654L17.4214 12.0383ZM20.5412 18.6759V18.4333C21.1451 18.4333 21.324 18.3235 21.324 17.6476V13.1244C21.324 12.4197 21.1451 12.3619 20.5412 12.3387V12.0904H25.9087V13.5576H25.6459C25.439 12.824 25.1763 12.5814 23.9183 12.5814H22.9454C22.6267 12.5814 22.5764 12.6334 22.5764 12.928V15.0423H23.6946C24.7178 15.0423 24.9246 14.8517 25.0365 14.1758H25.2713V16.5327H25.0365C24.9079 15.7471 24.5109 15.5564 23.6946 15.5564H22.5764V17.8672C22.5764 18.2773 22.6826 18.4102 23.8344 18.4102C24.9862 18.4102 25.6683 18.1964 26.2218 17.0237H26.4566L26.0093 18.7972H20.4853V18.6759H20.5412ZM27.3624 16.5963H27.5972C27.86 17.4628 28.7154 18.4102 29.6436 18.4102C29.79 18.4245 29.9378 18.4061 30.0767 18.3561C30.2157 18.306 30.3425 18.2257 30.4487 18.1203C30.5548 18.015 30.6377 17.8874 30.6918 17.746C30.7458 17.6046 30.7697 17.4528 30.7618 17.301C30.7618 15.7586 27.4071 15.4871 27.4071 13.5923C27.4331 13.1132 27.6396 12.6637 27.9823 12.3398C28.325 12.0159 28.7768 11.8434 29.241 11.8593C30.2082 11.8593 30.5493 12.2059 30.9687 12.2059C31.0576 12.2059 31.143 12.1694 31.2059 12.1044C31.2688 12.0394 31.3041 11.9512 31.3041 11.8593H31.539V14.0545H31.3041C31.2251 13.6075 31.0051 13.2002 30.6784 12.896C30.3516 12.5919 29.9367 12.4082 29.4982 12.3734C29.3708 12.3594 29.242 12.3737 29.1204 12.4152C28.9988 12.4567 28.8871 12.5246 28.7929 12.6142C28.6988 12.7039 28.6241 12.8134 28.5741 12.9352C28.5241 13.0571 28.4999 13.1885 28.503 13.3208C28.503 14.6783 31.8576 14.7072 31.8576 17.0584C31.8526 17.3179 31.7958 17.5734 31.6909 17.8092C31.586 18.045 31.4352 18.2559 31.2479 18.4288C31.0607 18.6017 30.8409 18.7329 30.6024 18.8141C30.3639 18.8954 30.1117 18.9251 29.8616 18.9012C28.7434 18.9012 28.4471 18.4968 27.9998 18.4968C27.8432 18.4968 27.737 18.6066 27.6643 18.8434H27.3288L27.3624 16.5963Z" fill="#868898"/>
</g>
<defs>
<clipPath id="clip0_161_1278">
<rect width="56.7175" height="18.3498" fill="white" transform="translate(0.591949 0.825134)"/>
</clipPath>
</defs>
</svg>
