<svg width="282" height="264" viewBox="0 0 282 264" fill="none" xmlns="http://www.w3.org/2000/svg">
<rect width="282" height="264" rx="8" fill="white"/>
<path d="M18.016 29L18.842 26.634H22.664L23.49 29H25.38L21.684 18.766H19.85L16.154 29H18.016ZM20.536 21.818C20.634 21.538 20.718 21.23 20.76 21.034C20.788 21.244 20.886 21.552 20.97 21.818L22.146 25.122H19.374L20.536 21.818ZM25.4108 25.528C25.4108 27.726 26.7828 29.182 28.8828 29.182C30.6888 29.182 32.0328 28.076 32.2428 26.466H30.5208C30.3388 27.222 29.7368 27.642 28.8828 27.642C27.7908 27.642 27.1188 26.83 27.1188 25.528C27.1188 24.226 27.8468 23.4 28.9388 23.4C29.7508 23.4 30.3248 23.806 30.5208 24.59H32.2288C32.0468 22.924 30.7588 21.874 28.8688 21.874C26.8248 21.874 25.4108 23.386 25.4108 25.528ZM35.5861 29V23.512H36.9301V22.084H35.5861V19.928H33.8781V22.084H32.5481V23.512H33.8781V29H35.5861ZM38.5659 20.698C39.1259 20.698 39.5879 20.236 39.5879 19.662C39.5879 19.088 39.1259 18.64 38.5659 18.64C37.9779 18.64 37.5159 19.088 37.5159 19.662C37.5159 20.236 37.9779 20.698 38.5659 20.698ZM37.7119 29H39.4199V22.084H37.7119V29ZM42.8646 29H44.5446L47.4286 22.084H45.6646L44.4046 25.262C44.1106 26.018 43.8586 26.746 43.7606 27.18C43.6766 26.802 43.4386 26.088 43.1446 25.262L41.9406 22.084H40.1206L42.8646 29ZM48.9844 20.698C49.5444 20.698 50.0064 20.236 50.0064 19.662C50.0064 19.088 49.5444 18.64 48.9844 18.64C48.3964 18.64 47.9344 19.088 47.9344 19.662C47.9344 20.236 48.3964 20.698 48.9844 20.698ZM48.1304 29H49.8384V22.084H48.1304V29ZM53.6751 29V23.512H55.0191V22.084H53.6751V19.928H51.9671V22.084H50.6371V23.512H51.9671V29H53.6751ZM55.1989 32.206C55.5769 32.304 55.9969 32.36 56.4729 32.36C57.6069 32.36 58.3349 31.828 58.8529 30.54L62.2409 22.084H60.4769L58.6009 27.124L56.8229 22.084H55.0169L57.8029 29.294L57.6069 29.812C57.3129 30.624 56.8929 30.778 56.2209 30.778H55.1989V32.206Z" fill="#383942"/>
<path d="M259.333 22H256.667C256.3 22 256 21.7 256 21.3333C256 20.9666 256.3 20.6666 256.667 20.6666H259.333C259.7 20.6666 260 20.9666 260 21.3333C260 21.7 259.7 22 259.333 22Z" fill="#5167F6"/>
<path d="M259.333 24H256.667C256.3 24 256 23.7 256 23.3333C256 22.9666 256.3 22.6666 256.667 22.6666H259.333C259.7 22.6666 260 22.9666 260 23.3333C260 23.7 259.7 24 259.333 24Z" fill="#5167F6"/>
<path d="M263 18.3333L262 17.3333L261 18.3333L260 17.3333L259 18.3333L258 17.3333L257 18.3333L256 17.3333L255 18.3333L254 17.3333V26.6666H252.667C252.3 26.6666 252 26.9666 252 27.3333V28.6666C252 29.7733 252.893 30.6666 254 30.6666H262C263.107 30.6666 264 29.7733 264 28.6666V17.3333L263 18.3333ZM260 29.3333H254C253.633 29.3333 253.333 29.0333 253.333 28.6666V28H260V29.3333ZM262.667 28.6666C262.667 29.0333 262.367 29.3333 262 29.3333C261.633 29.3333 261.333 29.0333 261.333 28.6666V27.3333C261.333 26.9666 261.033 26.6666 260.667 26.6666H255.333V19.3333H262.667V28.6666Z" fill="#5167F6"/>
<path d="M261.333 22C261.702 22 262 21.7015 262 21.3333C262 20.9651 261.702 20.6666 261.333 20.6666C260.965 20.6666 260.667 20.9651 260.667 21.3333C260.667 21.7015 260.965 22 261.333 22Z" fill="#5167F6"/>
<path d="M261.333 24C261.702 24 262 23.7015 262 23.3333C262 22.9651 261.702 22.6666 261.333 22.6666C260.965 22.6666 260.667 22.9651 260.667 23.3333C260.667 23.7015 260.965 24 261.333 24Z" fill="#5167F6"/>
<path d="M16 40H266" stroke="#DEDFE3" stroke-width="0.5" stroke-linecap="round"/>
<path d="M16.168 61.404H18.784V69H19.96V61.404H22.564V60.324H16.168V61.404ZM24.4423 68.988V65.796C24.4423 64.788 25.0303 63.996 26.1223 63.996C26.9623 63.996 27.5263 64.476 27.5263 65.664V69H28.6543V65.412C28.6543 63.912 27.9343 62.964 26.4343 62.964C25.5223 62.964 24.8143 63.396 24.4423 64.032V60.168H23.3143V68.988H24.4423ZM30.5286 61.74C30.9366 61.74 31.2726 61.404 31.2726 60.996C31.2726 60.576 30.9366 60.252 30.5286 60.252C30.1206 60.252 29.7846 60.576 29.7846 60.996C29.7846 61.404 30.1206 61.74 30.5286 61.74ZM29.9766 69H31.1046V63.132H29.9766V69ZM32.0222 67.296C32.0222 68.412 32.8982 69.144 34.2782 69.144C35.6702 69.144 36.6303 68.436 36.6303 67.32C36.6303 66.444 36.1382 65.988 35.1422 65.748L34.1102 65.496C33.5342 65.352 33.2462 65.088 33.2462 64.692C33.2462 64.152 33.6422 63.84 34.3502 63.84C35.0342 63.84 35.4302 64.212 35.4542 64.8H36.5342C36.5102 63.684 35.6702 62.964 34.3862 62.964C33.0902 62.964 32.1782 63.648 32.1782 64.728C32.1782 65.592 32.6702 66.108 33.7142 66.36L34.7463 66.6C35.3583 66.756 35.5503 66.996 35.5503 67.392C35.5503 67.932 35.0942 68.256 34.3022 68.256C33.5582 68.256 33.1022 67.896 33.1022 67.296H32.0222ZM41.8104 69V65.52C41.8104 64.584 42.3744 63.996 43.2264 63.996C44.0184 63.996 44.5224 64.5 44.5224 65.424V69H45.6384V65.52C45.6384 64.584 46.2024 63.984 47.0544 63.984C47.8464 63.984 48.3624 64.512 48.3624 65.436V69H49.4664V65.16C49.4664 63.804 48.6504 62.964 47.3064 62.964C46.3944 62.964 45.6864 63.42 45.4104 64.152C45.1104 63.42 44.4624 62.964 43.5504 62.964C42.7224 62.964 42.0984 63.348 41.7984 63.9L41.6904 63.132H40.6824V69H41.8104ZM50.4061 66.06C50.4061 67.872 51.7021 69.144 53.4661 69.144C55.2181 69.144 56.5141 67.872 56.5141 66.06C56.5141 64.248 55.2181 62.976 53.4661 62.976C51.7021 62.976 50.4061 64.248 50.4061 66.06ZM51.5461 66.06C51.5461 64.836 52.3261 63.984 53.4661 63.984C54.5941 63.984 55.3861 64.836 55.3861 66.06C55.3861 67.284 54.5941 68.136 53.4661 68.136C52.3261 68.136 51.5461 67.284 51.5461 66.06ZM58.6507 69V65.892C58.6507 64.752 59.2627 63.996 60.3187 63.996C61.1827 63.996 61.7347 64.476 61.7347 65.664V69H62.8627V65.412C62.8627 63.912 62.1547 62.964 60.6067 62.964C59.7787 62.964 59.0347 63.36 58.6627 64.032L58.5427 63.132H57.5227V69H58.6507ZM65.8411 69V64.08H66.9931V63.132H65.8411V61.296H64.7131V63.132H63.5611V64.08H64.7131V69H65.8411ZM68.8934 68.988V65.796C68.8934 64.788 69.4814 63.996 70.5734 63.996C71.4134 63.996 71.9774 64.476 71.9774 65.664V69H73.1054V65.412C73.1054 63.912 72.3854 62.964 70.8854 62.964C69.9734 62.964 69.2654 63.396 68.8934 64.032V60.168H67.7654V68.988H68.8934Z" fill="#5E606E"/>
<rect x="16" y="88" width="32" height="32" rx="16" fill="#F4F4F6"/>
<path d="M32 97.3333C28.32 97.3333 25.3333 100.32 25.3333 104C25.3333 107.68 28.32 110.667 32 110.667C35.68 110.667 38.6666 107.68 38.6666 104C38.6666 100.32 35.68 97.3333 32 97.3333ZM32.94 108.06V108.447C32.94 108.933 32.54 109.333 32.0533 109.333H32.0466C31.56 109.333 31.16 108.933 31.16 108.447V108.047C30.2733 107.86 29.4866 107.373 29.1533 106.553C29 106.187 29.2866 105.78 29.6866 105.78H29.8466C30.0933 105.78 30.2933 105.947 30.3866 106.18C30.58 106.68 31.0866 107.027 32.06 107.027C33.3666 107.027 33.66 106.373 33.66 105.967C33.66 105.413 33.3666 104.893 31.88 104.54C30.2266 104.14 29.0933 103.46 29.0933 102.093C29.0933 100.947 30.02 100.2 31.1666 99.9533V99.5533C31.1666 99.0666 31.5666 98.6666 32.0533 98.6666H32.06C32.5466 98.6666 32.9466 99.0666 32.9466 99.5533V99.9666C33.8666 100.193 34.4466 100.767 34.7 101.473C34.8333 101.84 34.5533 102.227 34.16 102.227H33.9866C33.74 102.227 33.54 102.053 33.4733 101.813C33.32 101.307 32.9 100.98 32.06 100.98C31.06 100.98 30.46 101.433 30.46 102.073C30.46 102.633 30.8933 103 32.24 103.347C33.5866 103.693 35.0266 104.273 35.0266 105.953C35.0133 107.173 34.1 107.84 32.94 108.06Z" fill="#5167F6"/>
<path d="M56.204 93.644H58.772V101H60.308V93.644H62.876V92.228H56.204V93.644ZM62.2383 98.024C62.2383 99.872 63.5703 101.144 65.4063 101.144C67.2423 101.144 68.5743 99.872 68.5743 98.024C68.5743 96.176 67.2423 94.904 65.4063 94.904C63.5703 94.904 62.2383 96.176 62.2383 98.024ZM63.7023 98.024C63.7023 96.944 64.3983 96.212 65.4063 96.212C66.4143 96.212 67.1103 96.944 67.1103 98.024C67.1103 99.104 66.4143 99.836 65.4063 99.836C64.3983 99.836 63.7023 99.104 63.7023 98.024ZM70.9588 101V97.64C70.9588 96.68 71.5228 96.224 72.2188 96.224C72.9148 96.224 73.3588 96.668 73.3588 97.496V101H74.8228V97.64C74.8228 96.668 75.3628 96.212 76.0708 96.212C76.7668 96.212 77.2228 96.656 77.2228 97.508V101H78.6748V97.124C78.6748 95.756 77.8828 94.892 76.4428 94.892C75.5428 94.892 74.8468 95.336 74.5468 96.02C74.2348 95.336 73.6108 94.892 72.7108 94.892C71.8588 94.892 71.2588 95.276 70.9588 95.768L70.8388 95.072H69.4948V101H70.9588ZM83.0823 101H86.6343C88.4463 101 89.4903 100.124 89.4903 98.624C89.4903 97.604 89.0223 96.908 88.0983 96.608C88.9263 96.26 89.3583 95.564 89.3583 94.592C89.3583 93.128 88.3023 92.228 86.5743 92.228H83.0823V101ZM86.4423 93.584C87.3063 93.584 87.7863 93.992 87.7863 94.748C87.7863 95.528 87.3183 95.972 86.4783 95.972H84.6183V93.584H86.4423ZM86.5743 97.268C87.4263 97.268 87.9183 97.688 87.9183 98.432C87.9183 99.224 87.4383 99.644 86.5743 99.644H84.6183V97.268H86.5743ZM91.2509 101.144C91.7789 101.144 92.2229 100.712 92.2229 100.196C92.2229 99.668 91.7789 99.236 91.2509 99.236C90.7229 99.236 90.2789 99.668 90.2789 100.196C90.2789 100.712 90.7229 101.144 91.2509 101.144Z" fill="#131316"/>
<path d="M56.564 114.588C56.564 116.124 57.824 117.144 59.756 117.144C61.676 117.144 62.948 116.124 62.948 114.6C62.948 113.532 62.324 112.668 61.352 112.356C62.168 112.032 62.624 111.348 62.624 110.46C62.624 109.092 61.472 108.168 59.768 108.168C58.04 108.168 56.876 109.092 56.876 110.448C56.876 111.324 57.32 112.008 58.136 112.356C57.176 112.704 56.564 113.544 56.564 114.588ZM57.956 110.52C57.956 109.716 58.664 109.188 59.744 109.188C60.836 109.188 61.52 109.716 61.52 110.544C61.52 111.384 60.836 111.924 59.744 111.924C58.664 111.924 57.956 111.372 57.956 110.52ZM57.716 114.504C57.716 113.544 58.508 112.932 59.744 112.932C60.992 112.932 61.784 113.544 61.784 114.504C61.784 115.476 60.98 116.1 59.756 116.1C58.52 116.1 57.716 115.476 57.716 114.504ZM67.6693 117L68.4373 114.84H72.0853L72.8653 117H74.1013L70.9213 108.324H69.6133L66.4453 117H67.6693ZM70.1173 110.196C70.1773 110.016 70.2373 109.812 70.2613 109.692C70.2853 109.824 70.3453 110.028 70.4053 110.196L71.7373 113.82H68.7973L70.1173 110.196ZM78.7145 111.132V114.228C78.7145 115.488 78.1505 116.148 77.1185 116.148C76.2545 116.148 75.7145 115.668 75.7145 114.408V111.132H74.5865V114.78C74.5865 116.22 75.3545 117.144 76.7225 117.144C77.5865 117.144 78.3665 116.724 78.7025 116.112L78.8225 117H79.8305V111.132H78.7145ZM80.8551 113.916C80.8551 115.56 81.9111 116.844 83.5791 116.844C84.5031 116.844 85.2711 116.436 85.6551 115.752V116.928C85.6551 118.044 84.9351 118.764 83.8311 118.764C82.8471 118.764 82.1991 118.26 82.0551 117.396H80.9271C81.1431 118.884 82.2351 119.784 83.8311 119.784C85.6311 119.784 86.7711 118.608 86.7711 116.76V111.132H85.7631L85.6791 112.128C85.3071 111.396 84.5751 110.964 83.6271 110.964C81.9231 110.964 80.8551 112.26 80.8551 113.916ZM81.9831 113.892C81.9831 112.812 82.6551 111.948 83.7831 111.948C84.9351 111.948 85.6071 112.764 85.6071 113.892C85.6071 115.044 84.9111 115.86 83.7711 115.86C82.6671 115.86 81.9831 114.996 81.9831 113.892ZM96.7922 116.988V115.896H92.7842L94.5842 114.336C96.1202 113.004 96.7322 112.128 96.7322 110.892C96.7322 109.224 95.6162 108.168 93.8762 108.168C92.1122 108.168 90.9362 109.38 90.9002 111.24H92.0762C92.1002 110.004 92.7962 109.224 93.8642 109.224C94.9082 109.224 95.5322 109.872 95.5322 110.964C95.5322 111.888 95.1362 112.476 93.7322 113.688L90.9362 116.1V117L96.7922 116.988ZM97.6346 112.668C97.6346 115.368 98.9666 117.156 101.211 117.156C103.443 117.156 104.775 115.368 104.775 112.668C104.775 109.98 103.383 108.156 101.211 108.156C99.0266 108.156 97.6346 109.98 97.6346 112.668ZM98.7986 112.668C98.7986 110.508 99.6866 109.212 101.211 109.212C102.735 109.212 103.611 110.508 103.611 112.668C103.611 114.804 102.735 116.1 101.211 116.1C99.6866 116.1 98.7986 114.804 98.7986 112.668ZM111.535 116.988V115.896H107.527L109.327 114.336C110.863 113.004 111.475 112.128 111.475 110.892C111.475 109.224 110.359 108.168 108.619 108.168C106.855 108.168 105.679 109.38 105.643 111.24H106.819C106.843 110.004 107.539 109.224 108.607 109.224C109.651 109.224 110.275 109.872 110.275 110.964C110.275 111.888 109.879 112.476 108.475 113.688L105.679 116.1V117L111.535 116.988ZM118.244 116.988V115.896H114.236L116.036 114.336C117.572 113.004 118.184 112.128 118.184 110.892C118.184 109.224 117.068 108.168 115.328 108.168C113.564 108.168 112.388 109.38 112.352 111.24H113.528C113.552 110.004 114.248 109.224 115.316 109.224C116.36 109.224 116.984 109.872 116.984 110.964C116.984 111.888 116.588 112.476 115.184 113.688L112.388 116.1V117L118.244 116.988Z" fill="#868898"/>
<path d="M221.96 96.344V97.568H224.348V99.968H225.572V97.568H227.96V96.344H225.572V93.956H224.348V96.344H221.96ZM231.802 102.14H232.726V101.12C234.334 100.94 235.366 99.932 235.366 98.468C235.366 97.196 234.67 96.452 233.134 96.116L232.726 96.02V93.44C233.35 93.572 233.71 93.992 233.734 94.64H235.222C235.174 93.2 234.238 92.252 232.726 92.096V91.076H231.802V92.096C230.206 92.264 229.15 93.272 229.15 94.676C229.15 95.996 229.906 96.836 231.418 97.16L231.802 97.244V99.8C231.022 99.704 230.578 99.272 230.566 98.588H229.03C229.066 100.052 230.134 101.024 231.802 101.144V102.14ZM231.754 95.804C230.986 95.636 230.65 95.264 230.65 94.628C230.65 93.98 231.082 93.548 231.802 93.428V95.816L231.754 95.804ZM232.81 97.46C233.53 97.616 233.878 97.988 233.878 98.6C233.878 99.212 233.446 99.632 232.726 99.776V97.436L232.81 97.46ZM238.651 96.656C239.875 96.656 240.451 97.304 240.451 98.192C240.451 99.164 239.815 99.788 238.855 99.788C237.919 99.788 237.295 99.212 237.295 98.204H235.783C235.783 100.1 237.115 101.156 238.831 101.156C240.607 101.156 242.011 100.016 242.011 98.216C242.011 96.668 240.967 95.684 239.623 95.42L241.759 93.452V92.228H236.191V93.584H239.839L237.583 95.66V96.656H238.651ZM245.629 101.144C247.585 101.144 248.917 99.848 248.917 97.952C248.917 96.224 247.753 95.036 246.001 95.036C245.401 95.036 244.873 95.192 244.453 95.468L244.921 93.644H248.389V92.228H243.817L242.737 96.824L244.093 97.112C244.405 96.656 245.017 96.32 245.689 96.32C246.745 96.32 247.357 97.016 247.357 98.036C247.357 99.104 246.697 99.776 245.665 99.776C244.693 99.776 244.105 99.188 244.105 98.192H242.581C242.581 99.968 243.793 101.144 245.629 101.144ZM249.56 96.632C249.56 99.344 250.94 101.156 253.268 101.156C255.596 101.156 256.988 99.344 256.988 96.632C256.988 93.908 255.512 92.06 253.268 92.06C251.024 92.06 249.56 93.908 249.56 96.632ZM251.072 96.632C251.072 94.556 251.888 93.416 253.268 93.416C254.66 93.416 255.476 94.556 255.476 96.632C255.476 98.66 254.66 99.8 253.268 99.8C251.888 99.8 251.072 98.66 251.072 96.632ZM257.781 96.632C257.781 99.344 259.161 101.156 261.489 101.156C263.817 101.156 265.209 99.344 265.209 96.632C265.209 93.908 263.733 92.06 261.489 92.06C259.245 92.06 257.781 93.908 257.781 96.632ZM259.293 96.632C259.293 94.556 260.109 93.416 261.489 93.416C262.881 93.416 263.697 94.556 263.697 96.632C263.697 98.66 262.881 99.8 261.489 99.8C260.109 99.8 259.293 98.66 259.293 96.632Z" fill="#7EC897"/>
<path d="M218.368 109.74C218.776 109.74 219.112 109.404 219.112 108.996C219.112 108.576 218.776 108.252 218.368 108.252C217.96 108.252 217.624 108.576 217.624 108.996C217.624 109.404 217.96 109.74 218.368 109.74ZM217.816 117H218.944V111.132H217.816V117ZM221.47 117V113.892C221.47 112.752 222.082 111.996 223.138 111.996C224.002 111.996 224.554 112.476 224.554 113.664V117H225.682V113.412C225.682 111.912 224.974 110.964 223.426 110.964C222.598 110.964 221.854 111.36 221.482 112.032L221.362 111.132H220.342V117H221.47ZM226.62 114.072C226.62 115.92 227.76 117.144 229.488 117.144C230.904 117.144 231.996 116.292 232.224 115.02H231.096C230.892 115.716 230.292 116.136 229.488 116.136C228.42 116.136 227.736 115.32 227.736 114.06C227.736 112.788 228.468 111.972 229.536 111.972C230.292 111.972 230.892 112.368 231.084 113.112H232.212C232.008 111.804 230.976 110.964 229.5 110.964C227.784 110.964 226.62 112.236 226.62 114.072ZM232.79 114.06C232.79 115.872 234.086 117.144 235.85 117.144C237.602 117.144 238.898 115.872 238.898 114.06C238.898 112.248 237.602 110.976 235.85 110.976C234.086 110.976 232.79 112.248 232.79 114.06ZM233.93 114.06C233.93 112.836 234.71 111.984 235.85 111.984C236.978 111.984 237.77 112.836 237.77 114.06C237.77 115.284 236.978 116.136 235.85 116.136C234.71 116.136 233.93 115.284 233.93 114.06ZM241.035 117V113.52C241.035 112.584 241.599 111.996 242.451 111.996C243.243 111.996 243.747 112.5 243.747 113.424V117H244.863V113.52C244.863 112.584 245.427 111.984 246.279 111.984C247.071 111.984 247.587 112.512 247.587 113.436V117H248.691V113.16C248.691 111.804 247.875 110.964 246.531 110.964C245.619 110.964 244.911 111.42 244.635 112.152C244.335 111.42 243.687 110.964 242.775 110.964C241.947 110.964 241.323 111.348 241.023 111.9L240.915 111.132H239.907V117H241.035ZM250.566 109.74C250.974 109.74 251.31 109.404 251.31 108.996C251.31 108.576 250.974 108.252 250.566 108.252C250.158 108.252 249.822 108.576 249.822 108.996C249.822 109.404 250.158 109.74 250.566 109.74ZM250.014 117H251.142V111.132H250.014V117ZM253.668 117V113.892C253.668 112.752 254.28 111.996 255.336 111.996C256.2 111.996 256.752 112.476 256.752 113.664V117H257.88V113.412C257.88 111.912 257.172 110.964 255.624 110.964C254.796 110.964 254.052 111.36 253.68 112.032L253.56 111.132H252.54V117H253.668ZM258.83 113.916C258.83 115.56 259.886 116.844 261.554 116.844C262.478 116.844 263.246 116.436 263.63 115.752V116.928C263.63 118.044 262.91 118.764 261.806 118.764C260.822 118.764 260.174 118.26 260.03 117.396H258.902C259.118 118.884 260.21 119.784 261.806 119.784C263.606 119.784 264.746 118.608 264.746 116.76V111.132H263.738L263.654 112.128C263.282 111.396 262.55 110.964 261.602 110.964C259.898 110.964 258.83 112.26 258.83 113.916ZM259.958 113.892C259.958 112.812 260.63 111.948 261.758 111.948C262.91 111.948 263.582 112.764 263.582 113.892C263.582 115.044 262.886 115.86 261.746 115.86C260.642 115.86 259.958 114.996 259.958 113.892Z" fill="#868898"/>
<rect x="16" y="136" width="32" height="32" rx="16" fill="#F4F4F6"/>
<path d="M32 145.333C28.32 145.333 25.3333 148.32 25.3333 152C25.3333 155.68 28.32 158.667 32 158.667C35.68 158.667 38.6666 155.68 38.6666 152C38.6666 148.32 35.68 145.333 32 145.333ZM32.94 156.06V156.447C32.94 156.933 32.54 157.333 32.0533 157.333H32.0466C31.56 157.333 31.16 156.933 31.16 156.447V156.047C30.2733 155.86 29.4866 155.373 29.1533 154.553C29 154.187 29.2866 153.78 29.6866 153.78H29.8466C30.0933 153.78 30.2933 153.947 30.3866 154.18C30.58 154.68 31.0866 155.027 32.06 155.027C33.3666 155.027 33.66 154.373 33.66 153.967C33.66 153.413 33.3666 152.893 31.88 152.54C30.2266 152.14 29.0933 151.46 29.0933 150.093C29.0933 148.947 30.02 148.2 31.1666 147.953V147.553C31.1666 147.067 31.5666 146.667 32.0533 146.667H32.06C32.5466 146.667 32.9466 147.067 32.9466 147.553V147.967C33.8666 148.193 34.4466 148.767 34.7 149.473C34.8333 149.84 34.5533 150.227 34.16 150.227H33.9866C33.74 150.227 33.54 150.053 33.4733 149.813C33.32 149.307 32.9 148.98 32.06 148.98C31.06 148.98 30.46 149.433 30.46 150.073C30.46 150.633 30.8933 151 32.24 151.347C33.5866 151.693 35.0266 152.273 35.0266 153.953C35.0133 155.173 34.1 155.84 32.94 156.06Z" fill="#5167F6"/>
<path d="M61.772 145.412V144.032H58.508V141.644H62.396V140.228H56.972V149H58.508V145.412H61.772ZM64.8006 149V140.072H63.3486V149H64.8006ZM65.7483 146.024C65.7483 147.872 67.0803 149.144 68.9163 149.144C70.7523 149.144 72.0843 147.872 72.0843 146.024C72.0843 144.176 70.7523 142.904 68.9163 142.904C67.0803 142.904 65.7483 144.176 65.7483 146.024ZM67.2123 146.024C67.2123 144.944 67.9083 144.212 68.9163 144.212C69.9243 144.212 70.6203 144.944 70.6203 146.024C70.6203 147.104 69.9243 147.836 68.9163 147.836C67.9083 147.836 67.2123 147.104 67.2123 146.024ZM74.0198 149H75.4478L76.2638 146.456C76.5638 145.484 76.6718 145.064 76.7318 144.788C76.7798 145.088 76.9118 145.652 77.1518 146.432L77.9678 149H79.3358L81.3878 143.072H79.8398L79.0478 145.616C78.9398 145.988 78.7478 146.696 78.6518 147.14C78.5798 146.744 78.3398 145.856 78.2678 145.616L77.4758 143.072H75.9878L75.1718 145.616C74.9798 146.204 74.8718 146.576 74.7638 147.152C74.6558 146.6 74.5358 146.084 74.4038 145.616L73.6238 143.072H72.0998L74.0198 149ZM83.3903 149L83.4863 148.076C83.8343 148.76 84.5903 149.156 85.4783 149.156C87.1823 149.156 88.2983 147.896 88.2983 146.072C88.2983 144.2 87.2663 142.88 85.5743 142.88C84.6743 142.88 83.8823 143.276 83.4983 143.936V140.072H82.0343V149H83.3903ZM83.5103 146.012C83.5103 144.944 84.1703 144.2 85.1783 144.2C86.2103 144.2 86.8223 144.956 86.8223 146.012C86.8223 147.068 86.2103 147.812 85.1783 147.812C84.1703 147.812 83.5103 147.08 83.5103 146.012ZM90.988 149.156C91.912 149.156 92.716 148.736 92.968 148.124L93.076 149H94.36V145.4C94.36 143.756 93.376 142.892 91.78 142.892C90.172 142.892 89.116 143.732 89.116 145.016H90.364C90.364 144.392 90.844 144.032 91.708 144.032C92.452 144.032 92.932 144.356 92.932 145.16V145.292L91.156 145.424C89.752 145.532 88.96 146.216 88.96 147.308C88.96 148.424 89.728 149.156 90.988 149.156ZM91.468 148.052C90.808 148.052 90.448 147.788 90.448 147.248C90.448 146.768 90.796 146.468 91.708 146.384L92.944 146.288V146.6C92.944 147.512 92.368 148.052 91.468 148.052ZM95.1022 147.2C95.1022 148.364 96.0382 149.156 97.5142 149.156C98.9782 149.156 99.9982 148.412 99.9982 147.212C99.9982 146.3 99.4942 145.844 98.4982 145.616L97.4302 145.364C96.9262 145.244 96.6622 145.028 96.6622 144.692C96.6622 144.248 96.9982 143.984 97.5742 143.984C98.1382 143.984 98.4742 144.308 98.4862 144.812H99.8782C99.8662 143.66 98.9662 142.892 97.6342 142.892C96.2662 142.892 95.2822 143.588 95.2822 144.752C95.2822 145.7 95.7982 146.204 96.8662 146.444L97.9342 146.696C98.4622 146.816 98.6182 147.032 98.6182 147.332C98.6182 147.764 98.2462 148.04 97.5622 148.04C96.8902 148.04 96.5062 147.716 96.4942 147.2H95.1022ZM103.525 149.156C105.073 149.156 106.153 148.376 106.405 147.08H105.049C104.881 147.644 104.353 147.956 103.549 147.956C102.577 147.956 102.025 147.428 101.917 146.384L106.381 146.372V145.928C106.381 144.08 105.253 142.892 103.477 142.892C101.737 142.892 100.525 144.176 100.525 146.036C100.525 147.872 101.761 149.156 103.525 149.156ZM103.489 144.092C104.365 144.092 104.929 144.632 104.929 145.448H101.953C102.097 144.56 102.625 144.092 103.489 144.092Z" fill="#131316"/>
<path d="M58.244 157.38V165H59.372V156.324H56.42V157.38H58.244ZM64.5403 165L65.3083 162.84H68.9563L69.7363 165H70.9723L67.7923 156.324H66.4843L63.3163 165H64.5403ZM66.9883 158.196C67.0483 158.016 67.1083 157.812 67.1323 157.692C67.1563 157.824 67.2163 158.028 67.2763 158.196L68.6083 161.82H65.6683L66.9883 158.196ZM75.5856 159.132V162.228C75.5856 163.488 75.0216 164.148 73.9896 164.148C73.1256 164.148 72.5856 163.668 72.5856 162.408V159.132H71.4576V162.78C71.4576 164.22 72.2256 165.144 73.5936 165.144C74.4576 165.144 75.2376 164.724 75.5736 164.112L75.6936 165H76.7016V159.132H75.5856ZM77.7262 161.916C77.7262 163.56 78.7822 164.844 80.4502 164.844C81.3742 164.844 82.1422 164.436 82.5262 163.752V164.928C82.5262 166.044 81.8062 166.764 80.7022 166.764C79.7182 166.764 79.0702 166.26 78.9262 165.396H77.7982C78.0142 166.884 79.1062 167.784 80.7022 167.784C82.5022 167.784 83.6422 166.608 83.6422 164.76V159.132H82.6342L82.5502 160.128C82.1782 159.396 81.4462 158.964 80.4982 158.964C78.7942 158.964 77.7262 160.26 77.7262 161.916ZM78.8542 161.892C78.8542 160.812 79.5262 159.948 80.6542 159.948C81.8062 159.948 82.4782 160.764 82.4782 161.892C82.4782 163.044 81.7822 163.86 80.6422 163.86C79.5382 163.86 78.8542 162.996 78.8542 161.892ZM93.6633 164.988V163.896H89.6553L91.4553 162.336C92.9913 161.004 93.6033 160.128 93.6033 158.892C93.6033 157.224 92.4873 156.168 90.7473 156.168C88.9833 156.168 87.8073 157.38 87.7713 159.24H88.9473C88.9713 158.004 89.6673 157.224 90.7353 157.224C91.7793 157.224 92.4033 157.872 92.4033 158.964C92.4033 159.888 92.0073 160.476 90.6033 161.688L87.8073 164.1V165L93.6633 164.988ZM94.5057 160.668C94.5057 163.368 95.8377 165.156 98.0817 165.156C100.314 165.156 101.646 163.368 101.646 160.668C101.646 157.98 100.254 156.156 98.0817 156.156C95.8977 156.156 94.5057 157.98 94.5057 160.668ZM95.6697 160.668C95.6697 158.508 96.5577 157.212 98.0817 157.212C99.6057 157.212 100.482 158.508 100.482 160.668C100.482 162.804 99.6057 164.1 98.0817 164.1C96.5577 164.1 95.6697 162.804 95.6697 160.668ZM108.406 164.988V163.896H104.398L106.198 162.336C107.734 161.004 108.346 160.128 108.346 158.892C108.346 157.224 107.23 156.168 105.49 156.168C103.726 156.168 102.55 157.38 102.514 159.24H103.69C103.714 158.004 104.41 157.224 105.478 157.224C106.522 157.224 107.146 157.872 107.146 158.964C107.146 159.888 106.75 160.476 105.346 161.688L102.55 164.1V165L108.406 164.988ZM115.115 164.988V163.896H111.107L112.907 162.336C114.443 161.004 115.055 160.128 115.055 158.892C115.055 157.224 113.939 156.168 112.199 156.168C110.435 156.168 109.259 157.38 109.223 159.24H110.399C110.423 158.004 111.119 157.224 112.187 157.224C113.231 157.224 113.855 157.872 113.855 158.964C113.855 159.888 113.459 160.476 112.055 161.688L109.259 164.1V165L115.115 164.988Z" fill="#868898"/>
<path d="M240.744 146.444H244.608V145.148H240.744V146.444ZM248.224 150.14H249.148V149.12C250.756 148.94 251.788 147.932 251.788 146.468C251.788 145.196 251.092 144.452 249.556 144.116L249.148 144.02V141.44C249.772 141.572 250.132 141.992 250.156 142.64H251.644C251.596 141.2 250.66 140.252 249.148 140.096V139.076H248.224V140.096C246.628 140.264 245.572 141.272 245.572 142.676C245.572 143.996 246.328 144.836 247.84 145.16L248.224 145.244V147.8C247.444 147.704 247 147.272 246.988 146.588H245.452C245.488 148.052 246.556 149.024 248.224 149.144V150.14ZM248.176 143.804C247.408 143.636 247.072 143.264 247.072 142.628C247.072 141.98 247.504 141.548 248.224 141.428V143.816L248.176 143.804ZM249.232 145.46C249.952 145.616 250.3 145.988 250.3 146.6C250.3 147.212 249.868 147.632 249.148 147.776V145.436L249.232 145.46ZM255.073 144.656C256.297 144.656 256.873 145.304 256.873 146.192C256.873 147.164 256.237 147.788 255.277 147.788C254.341 147.788 253.717 147.212 253.717 146.204H252.205C252.205 148.1 253.537 149.156 255.253 149.156C257.029 149.156 258.433 148.016 258.433 146.216C258.433 144.668 257.389 143.684 256.045 143.42L258.181 141.452V140.228H252.613V141.584H256.261L254.005 143.66V144.656H255.073ZM264.233 146.42C265.217 145.088 265.565 144.32 265.565 143.264C265.565 141.464 264.149 140.072 262.253 140.072C260.381 140.072 258.989 141.38 258.989 143.252C258.989 145.028 260.213 146.3 262.025 146.3C262.241 146.3 262.469 146.264 262.685 146.204L260.585 149H262.337L264.233 146.42ZM263.993 143.252C263.993 144.308 263.297 145.04 262.253 145.04C261.245 145.04 260.537 144.308 260.537 143.252C260.537 142.184 261.245 141.44 262.253 141.44C263.285 141.44 263.993 142.184 263.993 143.252Z" fill="#131316"/>
<path d="M202.336 163.296C202.336 164.412 203.212 165.144 204.592 165.144C205.984 165.144 206.944 164.436 206.944 163.32C206.944 162.444 206.452 161.988 205.456 161.748L204.424 161.496C203.848 161.352 203.56 161.088 203.56 160.692C203.56 160.152 203.956 159.84 204.664 159.84C205.348 159.84 205.744 160.212 205.768 160.8H206.848C206.824 159.684 205.984 158.964 204.7 158.964C203.404 158.964 202.492 159.648 202.492 160.728C202.492 161.592 202.984 162.108 204.028 162.36L205.06 162.6C205.672 162.756 205.864 162.996 205.864 163.392C205.864 163.932 205.408 164.256 204.616 164.256C203.872 164.256 203.416 163.896 203.416 163.296H202.336ZM212.011 159.132V162.228C212.011 163.488 211.447 164.148 210.415 164.148C209.551 164.148 209.011 163.668 209.011 162.408V159.132H207.883V162.78C207.883 164.22 208.651 165.144 210.019 165.144C210.883 165.144 211.663 164.724 211.999 164.112L212.119 165H213.127V159.132H212.011ZM215.544 165L215.628 163.932C216.012 164.736 216.792 165.144 217.716 165.144C219.42 165.144 220.476 163.872 220.476 162.096C220.476 160.284 219.468 158.964 217.788 158.964C216.828 158.964 216.036 159.372 215.652 160.14V156.168H214.524V165H215.544ZM215.664 162.048C215.664 160.848 216.36 159.984 217.512 159.984C218.664 159.984 219.348 160.848 219.348 162.048C219.348 163.26 218.664 164.124 217.512 164.124C216.36 164.124 215.664 163.272 215.664 162.048ZM220.999 163.296C220.999 164.412 221.875 165.144 223.255 165.144C224.647 165.144 225.607 164.436 225.607 163.32C225.607 162.444 225.115 161.988 224.119 161.748L223.087 161.496C222.511 161.352 222.223 161.088 222.223 160.692C222.223 160.152 222.619 159.84 223.327 159.84C224.011 159.84 224.407 160.212 224.431 160.8H225.511C225.487 159.684 224.647 158.964 223.363 158.964C222.067 158.964 221.155 159.648 221.155 160.728C221.155 161.592 221.647 162.108 222.691 162.36L223.723 162.6C224.335 162.756 224.527 162.996 224.527 163.392C224.527 163.932 224.071 164.256 223.279 164.256C222.535 164.256 222.079 163.896 222.079 163.296H220.999ZM226.234 162.072C226.234 163.92 227.374 165.144 229.102 165.144C230.518 165.144 231.61 164.292 231.838 163.02H230.71C230.506 163.716 229.906 164.136 229.102 164.136C228.034 164.136 227.35 163.32 227.35 162.06C227.35 160.788 228.082 159.972 229.15 159.972C229.906 159.972 230.506 160.368 230.698 161.112H231.826C231.622 159.804 230.59 158.964 229.114 158.964C227.398 158.964 226.234 160.236 226.234 162.072ZM236.148 159.084C235.92 159.036 235.752 159.012 235.548 159.012C234.744 159.012 234.156 159.42 233.916 160.032L233.844 159.144H232.788V165H233.916V161.892C233.916 160.764 234.576 160.116 235.644 160.116H236.148V159.084ZM237.518 157.74C237.926 157.74 238.262 157.404 238.262 156.996C238.262 156.576 237.926 156.252 237.518 156.252C237.11 156.252 236.774 156.576 236.774 156.996C236.774 157.404 237.11 157.74 237.518 157.74ZM236.966 165H238.094V159.132H236.966V165ZM239.491 167.628H240.619V164.04C241.003 164.76 241.783 165.156 242.719 165.156C244.459 165.156 245.443 163.812 245.443 162.024C245.443 160.224 244.399 158.964 242.719 158.964C241.783 158.964 240.991 159.384 240.595 160.188L240.511 159.132H239.491V167.628ZM240.631 162.072C240.631 160.848 241.327 159.996 242.479 159.996C243.631 159.996 244.315 160.86 244.315 162.072C244.315 163.272 243.631 164.136 242.479 164.136C241.327 164.136 240.631 163.272 240.631 162.072ZM248.044 165V160.08H249.196V159.132H248.044V157.296H246.916V159.132H245.764V160.08H246.916V165H248.044ZM250.521 157.74C250.929 157.74 251.265 157.404 251.265 156.996C251.265 156.576 250.929 156.252 250.521 156.252C250.113 156.252 249.777 156.576 249.777 156.996C249.777 157.404 250.113 157.74 250.521 157.74ZM249.969 165H251.097V159.132H249.969V165ZM252.11 162.06C252.11 163.872 253.406 165.144 255.17 165.144C256.922 165.144 258.218 163.872 258.218 162.06C258.218 160.248 256.922 158.976 255.17 158.976C253.406 158.976 252.11 160.248 252.11 162.06ZM253.25 162.06C253.25 160.836 254.03 159.984 255.17 159.984C256.298 159.984 257.09 160.836 257.09 162.06C257.09 163.284 256.298 164.136 255.17 164.136C254.03 164.136 253.25 163.284 253.25 162.06ZM260.355 165V161.892C260.355 160.752 260.967 159.996 262.023 159.996C262.887 159.996 263.439 160.476 263.439 161.664V165H264.567V161.412C264.567 159.912 263.859 158.964 262.311 158.964C261.483 158.964 260.739 159.36 260.367 160.032L260.247 159.132H259.227V165H260.355Z" fill="#868898"/>
<path d="M18.184 188.324H17.008V197H22V195.908H18.184V188.324ZM24.5615 197.144C25.5095 197.144 26.3135 196.724 26.6135 196.052L26.7335 197H27.6935V193.316C27.6935 191.732 26.7095 190.964 25.2575 190.964C23.7455 190.964 22.7375 191.768 22.7375 192.992H23.7215C23.7215 192.284 24.2615 191.864 25.2095 191.864C26.0015 191.864 26.5895 192.212 26.5895 193.196V193.364L24.7415 193.508C23.3615 193.616 22.5575 194.288 22.5575 195.368C22.5575 196.436 23.3015 197.144 24.5615 197.144ZM24.8855 196.268C24.1535 196.268 23.6975 195.956 23.6975 195.332C23.6975 194.756 24.1055 194.372 25.1015 194.276L26.6015 194.156V194.468C26.6015 195.572 25.9535 196.268 24.8855 196.268ZM28.5357 195.296C28.5357 196.412 29.4117 197.144 30.7917 197.144C32.1837 197.144 33.1437 196.436 33.1437 195.32C33.1437 194.444 32.6517 193.988 31.6557 193.748L30.6237 193.496C30.0477 193.352 29.7597 193.088 29.7597 192.692C29.7597 192.152 30.1557 191.84 30.8637 191.84C31.5477 191.84 31.9437 192.212 31.9677 192.8H33.0477C33.0237 191.684 32.1837 190.964 30.8997 190.964C29.6037 190.964 28.6917 191.648 28.6917 192.728C28.6917 193.592 29.1837 194.108 30.2277 194.36L31.2597 194.6C31.8717 194.756 32.0637 194.996 32.0637 195.392C32.0637 195.932 31.6077 196.256 30.8157 196.256C30.0717 196.256 29.6157 195.896 29.6157 195.296H28.5357ZM35.8106 197V192.08H36.9626V191.132H35.8106V189.296H34.6826V191.132H33.5306V192.08H34.6826V197H35.8106ZM41.9042 197V193.52C41.9042 192.584 42.4682 191.996 43.3202 191.996C44.1122 191.996 44.6162 192.5 44.6162 193.424V197H45.7322V193.52C45.7322 192.584 46.2962 191.984 47.1482 191.984C47.9402 191.984 48.4562 192.512 48.4562 193.436V197H49.5602V193.16C49.5602 191.804 48.7442 190.964 47.4002 190.964C46.4882 190.964 45.7802 191.42 45.5042 192.152C45.2042 191.42 44.5562 190.964 43.6442 190.964C42.8162 190.964 42.1922 191.348 41.8922 191.9L41.7842 191.132H40.7762V197H41.9042ZM50.4998 194.06C50.4998 195.872 51.7958 197.144 53.5598 197.144C55.3118 197.144 56.6078 195.872 56.6078 194.06C56.6078 192.248 55.3118 190.976 53.5598 190.976C51.7958 190.976 50.4998 192.248 50.4998 194.06ZM51.6398 194.06C51.6398 192.836 52.4198 191.984 53.5598 191.984C54.6878 191.984 55.4798 192.836 55.4798 194.06C55.4798 195.284 54.6878 196.136 53.5598 196.136C52.4198 196.136 51.6398 195.284 51.6398 194.06ZM58.7445 197V193.892C58.7445 192.752 59.3565 191.996 60.4125 191.996C61.2765 191.996 61.8285 192.476 61.8285 193.664V197H62.9565V193.412C62.9565 191.912 62.2485 190.964 60.7005 190.964C59.8725 190.964 59.1285 191.36 58.7565 192.032L58.6365 191.132H57.6165V197H58.7445ZM65.9348 197V192.08H67.0868V191.132H65.9348V189.296H64.8068V191.132H63.6548V192.08H64.8068V197H65.9348ZM68.9871 196.988V193.796C68.9871 192.788 69.5751 191.996 70.6671 191.996C71.5071 191.996 72.0711 192.476 72.0711 193.664V197H73.1991V193.412C73.1991 191.912 72.4791 190.964 70.9791 190.964C70.0671 190.964 69.3591 191.396 68.9871 192.032V188.168H67.8591V196.988H68.9871Z" fill="#5E606E"/>
<rect x="16" y="216" width="32" height="32" rx="16" fill="#F4F4F6"/>
<path d="M32 225.333C28.32 225.333 25.3333 228.32 25.3333 232C25.3333 235.68 28.32 238.667 32 238.667C35.68 238.667 38.6666 235.68 38.6666 232C38.6666 228.32 35.68 225.333 32 225.333ZM32.94 236.06V236.447C32.94 236.933 32.54 237.333 32.0533 237.333H32.0466C31.56 237.333 31.16 236.933 31.16 236.447V236.047C30.2733 235.86 29.4866 235.373 29.1533 234.553C29 234.187 29.2866 233.78 29.6866 233.78H29.8466C30.0933 233.78 30.2933 233.947 30.3866 234.18C30.58 234.68 31.0866 235.027 32.06 235.027C33.3666 235.027 33.66 234.373 33.66 233.967C33.66 233.413 33.3666 232.893 31.88 232.54C30.2266 232.14 29.0933 231.46 29.0933 230.093C29.0933 228.947 30.02 228.2 31.1666 227.953V227.553C31.1666 227.067 31.5666 226.667 32.0533 226.667H32.06C32.5466 226.667 32.9466 227.067 32.9466 227.553V227.967C33.8666 228.193 34.4466 228.767 34.7 229.473C34.8333 229.84 34.5533 230.227 34.16 230.227H33.9866C33.74 230.227 33.54 230.053 33.4733 229.813C33.32 229.307 32.9 228.98 32.06 228.98C31.06 228.98 30.46 229.433 30.46 230.073C30.46 230.633 30.8933 231 32.24 231.347C33.5866 231.693 35.0266 232.273 35.0266 233.953C35.0133 235.173 34.1 235.84 32.94 236.06Z" fill="#5167F6"/>
<path d="M62.42 229V227.584H58.508V225.256H62.012V223.9H58.508V221.644H62.42V220.228H56.972V229H62.42ZM67.3493 223.048C67.1093 222.988 66.9053 222.964 66.7013 222.964C65.9093 222.964 65.3453 223.36 65.0933 223.948L65.0093 223.084H63.6293V229H65.0933V226.12C65.0933 224.968 65.7533 224.404 66.8093 224.404H67.3493V223.048ZM70.553 229.156C72.101 229.156 73.181 228.376 73.433 227.08H72.077C71.909 227.644 71.381 227.956 70.577 227.956C69.605 227.956 69.053 227.428 68.945 226.384L73.409 226.372V225.928C73.409 224.08 72.281 222.892 70.505 222.892C68.765 222.892 67.553 224.176 67.553 226.036C67.553 227.872 68.789 229.156 70.553 229.156ZM70.517 224.092C71.393 224.092 71.957 224.632 71.957 225.448H68.981C69.125 224.56 69.653 224.092 70.517 224.092ZM75.8047 229V225.808C75.8047 224.848 76.3567 224.224 77.2567 224.224C78.0127 224.224 78.5047 224.704 78.5047 225.7V229H79.9687V225.352C79.9687 223.816 79.2007 222.892 77.7127 222.892C76.9087 222.892 76.1887 223.24 75.8167 223.84L75.6967 223.072H74.3407V229H75.8047ZM83.6095 221.644H86.1775V229H87.7135V221.644H90.2815V220.228H83.6095V221.644ZM90.8586 229.144C91.3866 229.144 91.8306 228.712 91.8306 228.196C91.8306 227.668 91.3866 227.236 90.8586 227.236C90.3306 227.236 89.8866 227.668 89.8866 228.196C89.8866 228.712 90.3306 229.144 90.8586 229.144Z" fill="#131316"/>
<path d="M62.408 244.988V243.896H58.4L60.2 242.336C61.736 241.004 62.348 240.128 62.348 238.892C62.348 237.224 61.232 236.168 59.492 236.168C57.728 236.168 56.552 237.38 56.516 239.24H57.692C57.716 238.004 58.412 237.224 59.48 237.224C60.524 237.224 61.148 237.872 61.148 238.964C61.148 239.888 60.752 240.476 59.348 241.688L56.552 244.1V245L62.408 244.988ZM63.2263 242.588C63.2263 244.124 64.4863 245.144 66.4183 245.144C68.3383 245.144 69.6103 244.124 69.6103 242.6C69.6103 241.532 68.9863 240.668 68.0143 240.356C68.8303 240.032 69.2863 239.348 69.2863 238.46C69.2863 237.092 68.1343 236.168 66.4303 236.168C64.7023 236.168 63.5383 237.092 63.5383 238.448C63.5383 239.324 63.9823 240.008 64.7983 240.356C63.8383 240.704 63.2263 241.544 63.2263 242.588ZM64.6183 238.52C64.6183 237.716 65.3263 237.188 66.4063 237.188C67.4983 237.188 68.1823 237.716 68.1823 238.544C68.1823 239.384 67.4983 239.924 66.4063 239.924C65.3263 239.924 64.6183 239.372 64.6183 238.52ZM64.3783 242.504C64.3783 241.544 65.1703 240.932 66.4063 240.932C67.6543 240.932 68.4463 241.544 68.4463 242.504C68.4463 243.476 67.6423 244.1 66.4183 244.1C65.1823 244.1 64.3783 243.476 64.3783 242.504ZM73.2036 242.588C73.2036 244.088 74.1156 245.144 75.7716 245.144C77.3196 245.144 78.3636 244.16 78.3636 242.6V236.324H77.1876V242.552C77.1876 243.452 76.7556 244.052 75.7716 244.052C74.8116 244.052 74.3436 243.44 74.3436 242.588V242.156H73.2036V242.588ZM83.9472 239.132V242.228C83.9472 243.488 83.3832 244.148 82.3512 244.148C81.4872 244.148 80.9472 243.668 80.9472 242.408V239.132H79.8192V242.78C79.8192 244.22 80.5872 245.144 81.9552 245.144C82.8192 245.144 83.5992 244.724 83.9352 244.112L84.0552 245H85.0632V239.132H83.9472ZM87.6117 245V236.168H86.4837V245H87.6117ZM97.6655 244.988V243.896H93.6575L95.4575 242.336C96.9935 241.004 97.6055 240.128 97.6055 238.892C97.6055 237.224 96.4895 236.168 94.7495 236.168C92.9855 236.168 91.8095 237.38 91.7735 239.24H92.9495C92.9735 238.004 93.6695 237.224 94.7375 237.224C95.7815 237.224 96.4055 237.872 96.4055 238.964C96.4055 239.888 96.0095 240.476 94.6055 241.688L91.8095 244.1V245L97.6655 244.988ZM98.5078 240.668C98.5078 243.368 99.8398 245.156 102.084 245.156C104.316 245.156 105.648 243.368 105.648 240.668C105.648 237.98 104.256 236.156 102.084 236.156C99.8998 236.156 98.5078 237.98 98.5078 240.668ZM99.6718 240.668C99.6718 238.508 100.56 237.212 102.084 237.212C103.608 237.212 104.484 238.508 104.484 240.668C104.484 242.804 103.608 244.1 102.084 244.1C100.56 244.1 99.6718 242.804 99.6718 240.668ZM112.408 244.988V243.896H108.4L110.2 242.336C111.736 241.004 112.348 240.128 112.348 238.892C112.348 237.224 111.232 236.168 109.492 236.168C107.728 236.168 106.552 237.38 106.516 239.24H107.692C107.716 238.004 108.412 237.224 109.48 237.224C110.524 237.224 111.148 237.872 111.148 238.964C111.148 239.888 110.752 240.476 109.348 241.688L106.552 244.1V245L112.408 244.988ZM119.117 244.988V243.896H115.109L116.909 242.336C118.445 241.004 119.057 240.128 119.057 238.892C119.057 237.224 117.941 236.168 116.201 236.168C114.437 236.168 113.261 237.38 113.225 239.24H114.401C114.425 238.004 115.121 237.224 116.189 237.224C117.233 237.224 117.857 237.872 117.857 238.964C117.857 239.888 117.461 240.476 116.057 241.688L113.261 244.1V245L119.117 244.988Z" fill="#868898"/>
<path d="M238.744 226.444H242.608V225.148H238.744V226.444ZM246.224 230.14H247.148V229.12C248.756 228.94 249.788 227.932 249.788 226.468C249.788 225.196 249.092 224.452 247.556 224.116L247.148 224.02V221.44C247.772 221.572 248.132 221.992 248.156 222.64H249.644C249.596 221.2 248.66 220.252 247.148 220.096V219.076H246.224V220.096C244.628 220.264 243.572 221.272 243.572 222.676C243.572 223.996 244.328 224.836 245.84 225.16L246.224 225.244V227.8C245.444 227.704 245 227.272 244.988 226.588H243.452C243.488 228.052 244.556 229.024 246.224 229.144V230.14ZM246.176 223.804C245.408 223.636 245.072 223.264 245.072 222.628C245.072 221.98 245.504 221.548 246.224 221.428V223.816L246.176 223.804ZM247.232 225.46C247.952 225.616 248.3 225.988 248.3 226.6C248.3 227.212 247.868 227.632 247.148 227.776V225.436L247.232 225.46ZM250.469 226.516C250.469 228.112 251.777 229.144 253.805 229.144C255.845 229.144 257.153 228.1 257.153 226.516C257.153 225.46 256.553 224.608 255.629 224.284C256.409 223.96 256.841 223.3 256.841 222.448C256.841 221.02 255.629 220.072 253.829 220.072C252.017 220.072 250.781 221.032 250.781 222.424C250.781 223.276 251.201 223.936 251.969 224.284C251.057 224.632 250.469 225.472 250.469 226.516ZM252.173 222.556C252.173 221.836 252.809 221.38 253.805 221.38C254.789 221.38 255.413 221.836 255.413 222.568C255.413 223.3 254.789 223.756 253.805 223.756C252.809 223.756 252.173 223.288 252.173 222.556ZM251.969 226.408C251.969 225.556 252.677 225.028 253.805 225.028C254.933 225.028 255.641 225.556 255.641 226.408C255.641 227.26 254.933 227.788 253.817 227.788C252.677 227.788 251.969 227.26 251.969 226.408ZM257.929 224.632C257.929 227.344 259.309 229.156 261.637 229.156C263.965 229.156 265.357 227.344 265.357 224.632C265.357 221.908 263.881 220.06 261.637 220.06C259.393 220.06 257.929 221.908 257.929 224.632ZM259.441 224.632C259.441 222.556 260.257 221.416 261.637 221.416C263.029 221.416 263.845 222.556 263.845 224.632C263.845 226.66 263.029 227.8 261.637 227.8C260.257 227.8 259.441 226.66 259.441 224.632Z" fill="#131316"/>
<path d="M233.472 245V240.08H234.624V239.132H233.472V237.296H232.344V239.132H231.192V240.08H232.344V245H233.472ZM234.954 242.06C234.954 243.872 236.25 245.144 238.014 245.144C239.766 245.144 241.062 243.872 241.062 242.06C241.062 240.248 239.766 238.976 238.014 238.976C236.25 238.976 234.954 240.248 234.954 242.06ZM236.094 242.06C236.094 240.836 236.874 239.984 238.014 239.984C239.142 239.984 239.934 240.836 239.934 242.06C239.934 243.284 239.142 244.136 238.014 244.136C236.874 244.136 236.094 243.284 236.094 242.06ZM242.07 247.628H243.198V244.04C243.582 244.76 244.362 245.156 245.298 245.156C247.038 245.156 248.022 243.812 248.022 242.024C248.022 240.224 246.978 238.964 245.298 238.964C244.362 238.964 243.57 239.384 243.174 240.188L243.09 239.132H242.07V247.628ZM243.21 242.072C243.21 240.848 243.906 239.996 245.058 239.996C246.21 239.996 246.894 240.86 246.894 242.072C246.894 243.272 246.21 244.136 245.058 244.136C243.906 244.136 243.21 243.272 243.21 242.072ZM256.123 239.132V242.228C256.123 243.488 255.559 244.148 254.527 244.148C253.663 244.148 253.123 243.668 253.123 242.408V239.132H251.995V242.78C251.995 244.22 252.763 245.144 254.131 245.144C254.995 245.144 255.775 244.724 256.111 244.112L256.231 245H257.239V239.132H256.123ZM258.636 247.628H259.764V244.04C260.148 244.76 260.928 245.156 261.864 245.156C263.604 245.156 264.588 243.812 264.588 242.024C264.588 240.224 263.544 238.964 261.864 238.964C260.928 238.964 260.136 239.384 259.74 240.188L259.656 239.132H258.636V247.628ZM259.776 242.072C259.776 240.848 260.472 239.996 261.624 239.996C262.776 239.996 263.46 240.86 263.46 242.072C263.46 243.272 262.776 244.136 261.624 244.136C260.472 244.136 259.776 243.272 259.776 242.072Z" fill="#868898"/>
</svg>
