<svg width="282" height="562" viewBox="0 0 282 562" fill="none" xmlns="http://www.w3.org/2000/svg">
<rect width="282" height="562" rx="8" fill="white"/>
<path d="M18.016 29L18.842 26.634H22.664L23.49 29H25.38L21.684 18.766H19.85L16.154 29H18.016ZM20.536 21.818C20.634 21.538 20.718 21.23 20.76 21.034C20.788 21.244 20.886 21.552 20.97 21.818L22.146 25.122H19.374L20.536 21.818ZM27.8393 29V25.276C27.8393 24.156 28.4833 23.428 29.5333 23.428C30.4153 23.428 30.9893 23.988 30.9893 25.15V29H32.6973V24.744C32.6973 22.952 31.8013 21.874 30.0653 21.874C29.1273 21.874 28.2873 22.28 27.8533 22.98L27.7133 22.084H26.1313V29H27.8393ZM36.1534 29.182C37.2314 29.182 38.1694 28.692 38.4634 27.978L38.5894 29H40.0874V24.8C40.0874 22.882 38.9394 21.874 37.0774 21.874C35.2014 21.874 33.9694 22.854 33.9694 24.352H35.4254C35.4254 23.624 35.9854 23.204 36.9934 23.204C37.8614 23.204 38.4214 23.582 38.4214 24.52V24.674L36.3494 24.828C34.7114 24.954 33.7874 25.752 33.7874 27.026C33.7874 28.328 34.6834 29.182 36.1534 29.182ZM36.7134 27.894C35.9434 27.894 35.5234 27.586 35.5234 26.956C35.5234 26.396 35.9294 26.046 36.9934 25.948L38.4354 25.836V26.2C38.4354 27.264 37.7634 27.894 36.7134 27.894ZM43.2074 29V18.584H41.5134V29H43.2074ZM44.117 32.206C44.495 32.304 44.915 32.36 45.391 32.36C46.525 32.36 47.253 31.828 47.771 30.54L51.159 22.084H49.395L47.519 27.124L45.741 22.084H43.935L46.721 29.294L46.525 29.812C46.231 30.624 45.811 30.778 45.139 30.778H44.117V32.206ZM51.1668 26.9C51.1668 28.258 52.2588 29.182 53.9808 29.182C55.6888 29.182 56.8788 28.314 56.8788 26.914C56.8788 25.85 56.2908 25.318 55.1288 25.052L53.8828 24.758C53.2948 24.618 52.9868 24.366 52.9868 23.974C52.9868 23.456 53.3788 23.148 54.0508 23.148C54.7088 23.148 55.1008 23.526 55.1148 24.114H56.7388C56.7248 22.77 55.6748 21.874 54.1208 21.874C52.5248 21.874 51.3768 22.686 51.3768 24.044C51.3768 25.15 51.9788 25.738 53.2248 26.018L54.4708 26.312C55.0868 26.452 55.2688 26.704 55.2688 27.054C55.2688 27.558 54.8348 27.88 54.0368 27.88C53.2528 27.88 52.8048 27.502 52.7908 26.9H51.1668ZM58.7533 20.698C59.3133 20.698 59.7753 20.236 59.7753 19.662C59.7753 19.088 59.3133 18.64 58.7533 18.64C58.1653 18.64 57.7033 19.088 57.7033 19.662C57.7033 20.236 58.1653 20.698 58.7533 20.698ZM57.8993 29H59.6073V22.084H57.8993V29ZM60.5599 26.9C60.5599 28.258 61.6519 29.182 63.3739 29.182C65.0819 29.182 66.2719 28.314 66.2719 26.914C66.2719 25.85 65.6839 25.318 64.5219 25.052L63.2759 24.758C62.6879 24.618 62.3799 24.366 62.3799 23.974C62.3799 23.456 62.7719 23.148 63.4439 23.148C64.1019 23.148 64.4939 23.526 64.5079 24.114H66.1319C66.1179 22.77 65.0679 21.874 63.5139 21.874C61.9179 21.874 60.7699 22.686 60.7699 24.044C60.7699 25.15 61.3719 25.738 62.6179 26.018L63.8639 26.312C64.4799 26.452 64.6619 26.704 64.6619 27.054C64.6619 27.558 64.2279 27.88 63.4299 27.88C62.6459 27.88 62.1979 27.502 62.1839 26.9H60.5599Z" fill="#383942"/>
<path d="M257.389 18.12V29.88C257.389 30.3067 256.995 30.6267 256.582 30.5333C253.602 29.8667 251.389 27.1933 251.389 24C251.389 20.8067 253.602 18.1333 256.582 17.4667C256.995 17.3733 257.389 17.6933 257.389 18.12ZM258.742 18.12V22.66C258.742 23.0267 259.042 23.3267 259.409 23.3267H263.935C264.362 23.3267 264.682 22.9333 264.589 22.5133C264.022 20.0067 262.055 18.0333 259.555 17.4667C259.135 17.3733 258.742 17.6933 258.742 18.12ZM258.742 25.34V29.88C258.742 30.3067 259.135 30.6267 259.555 30.5333C262.062 29.9667 264.029 27.9867 264.595 25.48C264.689 25.0667 264.362 24.6667 263.942 24.6667H259.415C259.042 24.6733 258.742 24.9733 258.742 25.34Z" fill="#5167F6"/>
<path d="M16 40H266" stroke="#DEDFE3" stroke-width="0.5" stroke-linecap="round"/>
<rect x="16" y="64" width="32" height="32" rx="16" fill="#F4F4F6"/>
<path d="M32.5862 76.7062L29.9962 79.2962C29.6062 79.6862 29.6062 80.3162 29.9962 80.7062L32.5862 83.2962C33.2162 83.9262 34.2962 83.4762 34.2962 82.5862V77.4062C34.2962 76.5162 33.2162 76.0762 32.5862 76.7062Z" fill="#131316"/>
<path d="M107.956 81L109.372 76.944H115.924L117.34 81H120.58L114.244 63.456H111.1L104.764 81H107.956ZM112.276 68.688C112.444 68.208 112.588 67.68 112.66 67.344C112.708 67.704 112.876 68.232 113.02 68.688L115.036 74.352H110.284L112.276 68.688ZM128.983 69.144V75.36C128.983 77.616 128.095 78.696 126.247 78.696C124.615 78.696 123.727 77.784 123.727 75.528V69.144H120.799V76.56C120.799 79.464 122.407 81.312 125.143 81.312C126.727 81.312 128.263 80.544 128.983 79.416L129.199 81H131.911V69.144H128.983ZM133.303 74.808C133.303 78.24 135.511 80.76 138.871 80.76C140.575 80.76 142.039 80.064 142.783 78.96V80.928C142.783 82.896 141.487 84.168 139.471 84.168C137.671 84.168 136.495 83.256 136.303 81.72H133.375C133.735 84.888 136.063 86.832 139.471 86.832C143.311 86.832 145.687 84.36 145.687 80.4V69.144H142.975L142.807 70.776C142.111 69.504 140.719 68.76 138.943 68.76C135.559 68.76 133.303 71.352 133.303 74.808ZM136.255 74.736C136.255 72.792 137.503 71.328 139.447 71.328C141.487 71.328 142.711 72.72 142.711 74.736C142.711 76.8 141.463 78.216 139.447 78.216C137.527 78.216 136.255 76.728 136.255 74.736ZM155.797 69.144V75.36C155.797 77.616 154.909 78.696 153.061 78.696C151.429 78.696 150.541 77.784 150.541 75.528V69.144H147.613V76.56C147.613 79.464 149.221 81.312 151.957 81.312C153.541 81.312 155.077 80.544 155.797 79.416L156.013 81H158.725V69.144H155.797ZM159.643 77.4C159.643 79.728 161.515 81.312 164.467 81.312C167.395 81.312 169.435 79.824 169.435 77.424C169.435 75.6 168.427 74.688 166.435 74.232L164.299 73.728C163.291 73.488 162.763 73.056 162.763 72.384C162.763 71.496 163.435 70.968 164.587 70.968C165.715 70.968 166.387 71.616 166.411 72.624H169.195C169.171 70.32 167.371 68.784 164.707 68.784C161.971 68.784 160.003 70.176 160.003 72.504C160.003 74.4 161.035 75.408 163.171 75.888L165.307 76.392C166.363 76.632 166.675 77.064 166.675 77.664C166.675 78.528 165.931 79.08 164.563 79.08C163.219 79.08 162.451 78.432 162.427 77.4H159.643ZM174.736 81V71.592H177.04V69.144H174.736V65.448H171.808V69.144H169.528V71.592H171.808V81H174.736Z" fill="#131316"/>
<path d="M132.908 100.988V99.896H128.9L130.7 98.336C132.236 97.004 132.848 96.128 132.848 94.892C132.848 93.224 131.732 92.168 129.992 92.168C128.228 92.168 127.052 93.38 127.016 95.24H128.192C128.216 94.004 128.912 93.224 129.98 93.224C131.024 93.224 131.648 93.872 131.648 94.964C131.648 95.888 131.252 96.476 129.848 97.688L127.052 100.1V101L132.908 100.988ZM133.75 96.668C133.75 99.368 135.082 101.156 137.326 101.156C139.558 101.156 140.89 99.368 140.89 96.668C140.89 93.98 139.498 92.156 137.326 92.156C135.142 92.156 133.75 93.98 133.75 96.668ZM134.914 96.668C134.914 94.508 135.802 93.212 137.326 93.212C138.85 93.212 139.726 94.508 139.726 96.668C139.726 98.804 138.85 100.1 137.326 100.1C135.802 100.1 134.914 98.804 134.914 96.668ZM147.651 100.988V99.896H143.643L145.443 98.336C146.979 97.004 147.591 96.128 147.591 94.892C147.591 93.224 146.475 92.168 144.735 92.168C142.971 92.168 141.795 93.38 141.759 95.24H142.935C142.959 94.004 143.655 93.224 144.723 93.224C145.767 93.224 146.391 93.872 146.391 94.964C146.391 95.888 145.995 96.476 144.591 97.688L141.795 100.1V101L147.651 100.988ZM154.36 100.988V99.896H150.352L152.152 98.336C153.688 97.004 154.3 96.128 154.3 94.892C154.3 93.224 153.184 92.168 151.444 92.168C149.68 92.168 148.504 93.38 148.468 95.24H149.644C149.668 94.004 150.364 93.224 151.432 93.224C152.476 93.224 153.1 93.872 153.1 94.964C153.1 95.888 152.704 96.476 151.3 97.688L148.504 100.1V101L154.36 100.988Z" fill="#868898"/>
<rect x="234" y="64" width="32" height="32" rx="16" fill="#F4F4F6"/>
<path d="M249.414 83.2917L252.004 80.7017C252.394 80.3117 252.394 79.6817 252.004 79.2917L249.414 76.7017C248.784 76.0817 247.704 76.5217 247.704 77.4117V82.5817C247.704 83.4817 248.784 83.9217 249.414 83.2917Z" fill="#131316"/>
<g clip-path="url(#clip0_161_1912)">
<rect width="250" height="250" transform="translate(16 120)" fill="white"/>
<path d="M259.882 283.627C251.725 308.733 235.829 330.611 214.473 346.127C193.117 361.643 167.397 370 141 370V345C162.118 345 182.694 338.314 199.779 325.902C216.863 313.489 229.58 295.986 236.106 275.902L259.882 283.627Z" fill="#7EC897"/>
<path d="M141 120C160.726 120 180.173 124.669 197.749 133.624C215.325 142.58 230.532 155.568 242.127 171.527C253.722 187.486 261.375 205.962 264.461 225.446C267.547 244.929 265.978 264.866 259.882 283.627L236.106 275.902C240.982 260.893 242.238 244.943 239.769 229.357C237.3 213.77 231.178 198.989 221.902 186.221C212.626 173.454 200.46 163.064 186.399 155.899C172.338 148.735 156.781 145 141 145V120Z" fill="#F6D550"/>
<path d="M141 370C124.585 370 108.33 366.767 93.1646 360.485C77.9989 354.203 64.219 344.996 52.6116 333.388C41.0043 321.781 31.7969 308.001 25.515 292.835C19.2332 277.67 16 261.415 16 245C16 228.585 19.2332 212.33 25.5151 197.165C31.7969 181.999 41.0044 168.219 52.6117 156.612C64.219 145.004 77.9989 135.797 93.1646 129.515C108.33 123.233 124.585 120 141 120L141 145C127.868 145 114.864 147.587 102.732 152.612C90.5991 157.637 79.5752 165.003 70.2893 174.289C61.0035 183.575 53.6375 194.599 48.6121 206.732C43.5866 218.864 41 231.868 41 245C41 258.132 43.5866 271.136 48.612 283.268C53.6375 295.401 61.0035 306.425 70.2893 315.711C79.5752 324.997 90.5991 332.362 102.732 337.388C114.864 342.413 127.868 345 141 345V370Z" fill="#5167F6"/>
<path d="M89.6281 252.04H92.0921V249.32C96.3801 248.84 99.1321 246.152 99.1321 242.248C99.1321 238.856 97.2761 236.872 93.1801 235.976L92.0921 235.72V228.84C93.7561 229.192 94.7161 230.312 94.7801 232.04H98.7481C98.6201 228.2 96.1241 225.672 92.0921 225.256V222.536H89.6281V225.256C85.3721 225.704 82.5561 228.392 82.5561 232.136C82.5561 235.656 84.5721 237.896 88.6041 238.76L89.6281 238.984V245.8C87.5481 245.544 86.3641 244.392 86.3321 242.568H82.2361C82.3321 246.472 85.1801 249.064 89.6281 249.384V252.04ZM89.5001 235.144C87.4521 234.696 86.5561 233.704 86.5561 232.008C86.5561 230.28 87.7081 229.128 89.6281 228.808V235.176L89.5001 235.144ZM92.3161 239.56C94.2361 239.976 95.1641 240.968 95.1641 242.6C95.1641 244.232 94.0121 245.352 92.0921 245.736V239.496L92.3161 239.56ZM107.254 237.416C110.518 237.416 112.054 239.144 112.054 241.512C112.054 244.104 110.358 245.768 107.798 245.768C105.302 245.768 103.638 244.232 103.638 241.544H99.6056C99.6056 246.6 103.158 249.416 107.734 249.416C112.47 249.416 116.214 246.376 116.214 241.576C116.214 237.448 113.43 234.824 109.846 234.12L115.542 228.872V225.608H100.694V229.224H110.422L104.406 234.76V237.416H107.254ZM120.263 249.384C121.671 249.384 122.855 248.232 122.855 246.856C122.855 245.448 121.671 244.296 120.263 244.296C118.855 244.296 117.671 245.448 117.671 246.856C117.671 248.232 118.855 249.384 120.263 249.384ZM127.391 232.488C124.767 236.04 123.839 238.088 123.839 240.904C123.839 245.704 127.615 249.416 132.671 249.416C137.663 249.416 141.375 245.928 141.375 240.936C141.375 236.2 138.111 232.808 133.279 232.808C132.703 232.808 132.095 232.904 131.519 233.064L137.119 225.608H132.447L127.391 232.488ZM128.031 240.936C128.031 238.12 129.887 236.168 132.671 236.168C135.359 236.168 137.247 238.12 137.247 240.936C137.247 243.784 135.327 245.768 132.671 245.768C129.919 245.768 128.031 243.784 128.031 240.936ZM158.415 248.968V245.16H148.687L152.911 241.544C156.463 238.504 158.255 236.04 158.255 232.776C158.255 228.04 155.151 225.192 150.159 225.192C145.199 225.192 141.935 228.52 141.903 233.64H145.967C145.999 230.632 147.599 228.84 150.159 228.84C152.623 228.84 154.063 230.344 154.063 233C154.063 235.24 153.007 236.776 149.839 239.464L142.191 245.928V249L158.415 248.968ZM159.659 237.352C159.659 244.584 163.339 249.416 169.547 249.416C175.755 249.416 179.467 244.584 179.467 237.352C179.467 230.088 175.531 225.16 169.547 225.16C163.563 225.16 159.659 230.088 159.659 237.352ZM163.691 237.352C163.691 231.816 165.867 228.776 169.547 228.776C173.259 228.776 175.435 231.816 175.435 237.352C175.435 242.76 173.259 245.8 169.547 245.8C165.867 245.8 163.691 242.76 163.691 237.352ZM185.641 247.592C185.641 245.608 184.489 244.296 182.889 244.296C181.449 244.296 180.457 245.32 180.457 246.856C180.457 248.136 181.481 249.064 182.729 249.064C183.113 249.064 183.401 249 183.657 248.872C183.657 249.992 182.569 250.856 181.129 251.112V252.68C183.721 252.36 185.641 250.248 185.641 247.592ZM188.426 242.184H198.73V238.728H188.426V242.184Z" fill="#131316"/>
<rect x="133" y="265" width="16" height="16" rx="8" fill="#F1F9F3"/>
<path d="M141.5 276.396V270.811L143.94 273.251C144.135 273.446 144.455 273.446 144.65 273.251C144.845 273.056 144.845 272.741 144.65 272.546L141.355 269.251C141.16 269.056 140.845 269.056 140.65 269.251L137.35 272.541C137.155 272.736 137.155 273.051 137.35 273.246C137.545 273.441 137.86 273.441 138.055 273.246L140.5 270.811V276.396C140.5 276.671 140.725 276.896 141 276.896C141.275 276.896 141.5 276.671 141.5 276.396Z" fill="#7EC897"/>
<path d="M89.9793 286.608V294H91.4553V285.228H88.0593V286.608H89.9793ZM93.9566 287.808C92.9726 289.14 92.6246 289.908 92.6246 290.964C92.6246 292.764 94.0406 294.156 95.9366 294.156C97.8086 294.156 99.2006 292.848 99.2006 290.976C99.2006 289.2 97.9766 287.928 96.1646 287.928C95.9486 287.928 95.7206 287.964 95.5046 288.024L97.6046 285.228H95.8526L93.9566 287.808ZM94.1966 290.976C94.1966 289.92 94.8926 289.188 95.9366 289.188C96.9446 289.188 97.6526 289.92 97.6526 290.976C97.6526 292.044 96.9326 292.788 95.9366 292.788C94.9046 292.788 94.1966 292.044 94.1966 290.976ZM100.946 294.144C101.474 294.144 101.918 293.712 101.918 293.196C101.918 292.668 101.474 292.236 100.946 292.236C100.418 292.236 99.9745 292.668 99.9745 293.196C99.9745 293.712 100.418 294.144 100.946 294.144ZM103.603 286.608V294H105.079V285.228H101.683V286.608H103.603ZM106.238 291.516C106.238 293.112 107.546 294.144 109.574 294.144C111.614 294.144 112.922 293.1 112.922 291.516C112.922 290.46 112.322 289.608 111.398 289.284C112.178 288.96 112.61 288.3 112.61 287.448C112.61 286.02 111.398 285.072 109.598 285.072C107.786 285.072 106.55 286.032 106.55 287.424C106.55 288.276 106.97 288.936 107.738 289.284C106.826 289.632 106.238 290.472 106.238 291.516ZM107.942 287.556C107.942 286.836 108.578 286.38 109.574 286.38C110.558 286.38 111.182 286.836 111.182 287.568C111.182 288.3 110.558 288.756 109.574 288.756C108.578 288.756 107.942 288.288 107.942 287.556ZM107.738 291.408C107.738 290.556 108.446 290.028 109.574 290.028C110.702 290.028 111.41 290.556 111.41 291.408C111.41 292.26 110.702 292.788 109.586 292.788C108.446 292.788 107.738 292.26 107.738 291.408ZM118.174 287.364C118.174 286.02 117.214 285.06 115.882 285.06C114.55 285.06 113.59 286.02 113.59 287.364C113.59 288.72 114.55 289.668 115.882 289.668C117.214 289.668 118.174 288.72 118.174 287.364ZM122.986 285.24H121.522L114.862 294H116.326L122.986 285.24ZM117.01 287.364C117.01 288.06 116.554 288.54 115.882 288.54C115.222 288.54 114.766 288.06 114.766 287.364C114.766 286.668 115.21 286.188 115.882 286.188C116.554 286.188 117.01 286.668 117.01 287.364ZM124.27 291.852C124.27 290.508 123.322 289.548 121.99 289.548C120.646 289.548 119.698 290.508 119.698 291.852C119.698 293.196 120.646 294.156 121.99 294.156C123.322 294.156 124.27 293.196 124.27 291.852ZM123.106 291.852C123.106 292.548 122.65 293.028 121.99 293.028C121.318 293.028 120.862 292.548 120.862 291.852C120.862 291.156 121.318 290.676 121.99 290.676C122.65 290.676 123.106 291.156 123.106 291.852Z" fill="#7EC897"/>
<path d="M127.923 291.072C127.923 292.92 129.063 294.144 130.791 294.144C132.207 294.144 133.299 293.292 133.527 292.02H132.399C132.195 292.716 131.595 293.136 130.791 293.136C129.723 293.136 129.039 292.32 129.039 291.06C129.039 289.788 129.771 288.972 130.839 288.972C131.595 288.972 132.195 289.368 132.387 290.112H133.515C133.311 288.804 132.279 287.964 130.803 287.964C129.087 287.964 127.923 289.236 127.923 291.072ZM134.093 291.06C134.093 292.872 135.389 294.144 137.153 294.144C138.905 294.144 140.201 292.872 140.201 291.06C140.201 289.248 138.905 287.976 137.153 287.976C135.389 287.976 134.093 289.248 134.093 291.06ZM135.233 291.06C135.233 289.836 136.013 288.984 137.153 288.984C138.281 288.984 139.073 289.836 139.073 291.06C139.073 292.284 138.281 293.136 137.153 293.136C136.013 293.136 135.233 292.284 135.233 291.06ZM142.338 294V290.52C142.338 289.584 142.902 288.996 143.754 288.996C144.546 288.996 145.05 289.5 145.05 290.424V294H146.166V290.52C146.166 289.584 146.73 288.984 147.582 288.984C148.374 288.984 148.89 289.512 148.89 290.436V294H149.994V290.16C149.994 288.804 149.178 287.964 147.834 287.964C146.922 287.964 146.214 288.42 145.938 289.152C145.638 288.42 144.99 287.964 144.078 287.964C143.25 287.964 142.626 288.348 142.326 288.9L142.218 288.132H141.21V294H142.338ZM151.317 296.628H152.445V293.04C152.829 293.76 153.609 294.156 154.545 294.156C156.285 294.156 157.269 292.812 157.269 291.024C157.269 289.224 156.225 287.964 154.545 287.964C153.609 287.964 152.817 288.384 152.421 289.188L152.337 288.132H151.317V296.628ZM152.457 291.072C152.457 289.848 153.153 288.996 154.305 288.996C155.457 288.996 156.141 289.86 156.141 291.072C156.141 292.272 155.457 293.136 154.305 293.136C153.153 293.136 152.457 292.272 152.457 291.072ZM159.989 294.144C160.937 294.144 161.741 293.724 162.041 293.052L162.161 294H163.121V290.316C163.121 288.732 162.137 287.964 160.685 287.964C159.173 287.964 158.165 288.768 158.165 289.992H159.149C159.149 289.284 159.689 288.864 160.637 288.864C161.429 288.864 162.017 289.212 162.017 290.196V290.364L160.169 290.508C158.789 290.616 157.985 291.288 157.985 292.368C157.985 293.436 158.729 294.144 159.989 294.144ZM160.313 293.268C159.581 293.268 159.125 292.956 159.125 292.332C159.125 291.756 159.533 291.372 160.529 291.276L162.029 291.156V291.468C162.029 292.572 161.381 293.268 160.313 293.268ZM167.803 288.084C167.575 288.036 167.407 288.012 167.203 288.012C166.399 288.012 165.811 288.42 165.571 289.032L165.499 288.144H164.443V294H165.571V290.892C165.571 289.764 166.231 289.116 167.299 289.116H167.803V288.084ZM170.942 294.144C172.394 294.144 173.378 293.436 173.666 292.176H172.61C172.418 292.848 171.842 293.208 170.966 293.208C169.85 293.208 169.202 292.524 169.118 291.288L173.654 291.276V290.856C173.654 289.116 172.562 287.964 170.894 287.964C169.19 287.964 168.026 289.236 168.026 291.072C168.026 292.896 169.214 294.144 170.942 294.144ZM170.894 288.912C171.89 288.912 172.526 289.56 172.526 290.532H169.142C169.286 289.5 169.91 288.912 170.894 288.912ZM177.026 294.144C177.962 294.144 178.754 293.736 179.138 292.932L179.234 294H180.242V285.168H179.126V289.08C178.73 288.36 177.974 287.964 177.074 287.964C175.334 287.964 174.29 289.284 174.29 291.084C174.29 292.872 175.322 294.144 177.026 294.144ZM177.254 293.124C176.102 293.124 175.43 292.26 175.43 291.048C175.43 289.848 176.102 288.984 177.254 288.984C178.406 288.984 179.114 289.848 179.114 291.048C179.114 292.272 178.406 293.124 177.254 293.124ZM186.326 294V289.08H187.478V288.132H186.326V286.296H185.198V288.132H184.046V289.08H185.198V294H186.326ZM187.808 291.06C187.808 292.872 189.104 294.144 190.868 294.144C192.62 294.144 193.916 292.872 193.916 291.06C193.916 289.248 192.62 287.976 190.868 287.976C189.104 287.976 187.808 289.248 187.808 291.06ZM188.948 291.06C188.948 289.836 189.728 288.984 190.868 288.984C191.996 288.984 192.788 289.836 192.788 291.06C192.788 292.284 191.996 293.136 190.868 293.136C189.728 293.136 188.948 292.284 188.948 291.06ZM115.724 310V301.168H114.596V310H115.724ZM118.86 310.144C119.808 310.144 120.612 309.724 120.912 309.052L121.032 310H121.992V306.316C121.992 304.732 121.008 303.964 119.556 303.964C118.044 303.964 117.036 304.768 117.036 305.992H118.02C118.02 305.284 118.56 304.864 119.508 304.864C120.3 304.864 120.888 305.212 120.888 306.196V306.364L119.04 306.508C117.66 306.616 116.856 307.288 116.856 308.368C116.856 309.436 117.6 310.144 118.86 310.144ZM119.184 309.268C118.452 309.268 117.996 308.956 117.996 308.332C117.996 307.756 118.404 307.372 119.4 307.276L120.9 307.156V307.468C120.9 308.572 120.252 309.268 119.184 309.268ZM122.834 308.296C122.834 309.412 123.71 310.144 125.09 310.144C126.482 310.144 127.442 309.436 127.442 308.32C127.442 307.444 126.95 306.988 125.954 306.748L124.922 306.496C124.346 306.352 124.058 306.088 124.058 305.692C124.058 305.152 124.454 304.84 125.162 304.84C125.846 304.84 126.242 305.212 126.266 305.8H127.346C127.322 304.684 126.482 303.964 125.198 303.964C123.902 303.964 122.99 304.648 122.99 305.728C122.99 306.592 123.482 307.108 124.526 307.36L125.558 307.6C126.17 307.756 126.362 307.996 126.362 308.392C126.362 308.932 125.906 309.256 125.114 309.256C124.37 309.256 123.914 308.896 123.914 308.296H122.834ZM130.109 310V305.08H131.261V304.132H130.109V302.296H128.981V304.132H127.829V305.08H128.981V310H130.109ZM136.203 310V306.52C136.203 305.584 136.767 304.996 137.619 304.996C138.411 304.996 138.915 305.5 138.915 306.424V310H140.031V306.52C140.031 305.584 140.595 304.984 141.447 304.984C142.239 304.984 142.755 305.512 142.755 306.436V310H143.859V306.16C143.859 304.804 143.043 303.964 141.699 303.964C140.787 303.964 140.079 304.42 139.803 305.152C139.503 304.42 138.855 303.964 137.943 303.964C137.115 303.964 136.491 304.348 136.191 304.9L136.083 304.132H135.075V310H136.203ZM144.799 307.06C144.799 308.872 146.095 310.144 147.859 310.144C149.611 310.144 150.907 308.872 150.907 307.06C150.907 305.248 149.611 303.976 147.859 303.976C146.095 303.976 144.799 305.248 144.799 307.06ZM145.939 307.06C145.939 305.836 146.719 304.984 147.859 304.984C148.987 304.984 149.779 305.836 149.779 307.06C149.779 308.284 148.987 309.136 147.859 309.136C146.719 309.136 145.939 308.284 145.939 307.06ZM153.043 310V306.892C153.043 305.752 153.655 304.996 154.711 304.996C155.575 304.996 156.127 305.476 156.127 306.664V310H157.255V306.412C157.255 304.912 156.547 303.964 154.999 303.964C154.171 303.964 153.427 304.36 153.055 305.032L152.935 304.132H151.915V310H153.043ZM160.234 310V305.08H161.386V304.132H160.234V302.296H159.106V304.132H157.954V305.08H159.106V310H160.234ZM163.286 309.988V306.796C163.286 305.788 163.874 304.996 164.966 304.996C165.806 304.996 166.37 305.476 166.37 306.664V310H167.498V306.412C167.498 304.912 166.778 303.964 165.278 303.964C164.366 303.964 163.658 304.396 163.286 305.032V301.168H162.158V309.988H163.286Z" fill="#5E606E"/>
</g>
<path d="M20.608 399.132C22.564 399.132 24.112 397.98 24.484 396.252H23.236C22.912 397.32 21.904 398.004 20.632 398.004C18.88 398.004 17.728 396.684 17.728 394.656C17.728 392.628 18.88 391.308 20.632 391.308C21.892 391.308 22.864 391.992 23.188 393.12H24.448C24.124 391.344 22.624 390.18 20.668 390.18C18.184 390.18 16.492 391.992 16.492 394.668C16.492 397.356 18.136 399.132 20.608 399.132ZM25.11 396.06C25.11 397.872 26.406 399.144 28.17 399.144C29.922 399.144 31.218 397.872 31.218 396.06C31.218 394.248 29.922 392.976 28.17 392.976C26.406 392.976 25.11 394.248 25.11 396.06ZM26.25 396.06C26.25 394.836 27.03 393.984 28.17 393.984C29.298 393.984 30.09 394.836 30.09 396.06C30.09 397.284 29.298 398.136 28.17 398.136C27.03 398.136 26.25 397.284 26.25 396.06ZM33.3546 399V395.52C33.3546 394.584 33.9186 393.996 34.7706 393.996C35.5626 393.996 36.0666 394.5 36.0666 395.424V399H37.1826V395.52C37.1826 394.584 37.7466 393.984 38.5986 393.984C39.3906 393.984 39.9066 394.512 39.9066 395.436V399H41.0106V395.16C41.0106 393.804 40.1946 392.964 38.8506 392.964C37.9386 392.964 37.2306 393.42 36.9546 394.152C36.6546 393.42 36.0066 392.964 35.0946 392.964C34.2666 392.964 33.6426 393.348 33.3426 393.9L33.2346 393.132H32.2266V399H33.3546ZM42.3343 401.628H43.4623V398.04C43.8463 398.76 44.6263 399.156 45.5623 399.156C47.3023 399.156 48.2863 397.812 48.2863 396.024C48.2863 394.224 47.2423 392.964 45.5623 392.964C44.6263 392.964 43.8343 393.384 43.4383 394.188L43.3543 393.132H42.3343V401.628ZM43.4743 396.072C43.4743 394.848 44.1703 393.996 45.3223 393.996C46.4743 393.996 47.1583 394.86 47.1583 396.072C47.1583 397.272 46.4743 398.136 45.3223 398.136C44.1703 398.136 43.4743 397.272 43.4743 396.072ZM51.0056 399.144C51.9536 399.144 52.7576 398.724 53.0576 398.052L53.1776 399H54.1376V395.316C54.1376 393.732 53.1536 392.964 51.7016 392.964C50.1896 392.964 49.1816 393.768 49.1816 394.992H50.1656C50.1656 394.284 50.7056 393.864 51.6536 393.864C52.4456 393.864 53.0336 394.212 53.0336 395.196V395.364L51.1856 395.508C49.8056 395.616 49.0016 396.288 49.0016 397.368C49.0016 398.436 49.7456 399.144 51.0056 399.144ZM51.3296 398.268C50.5976 398.268 50.1416 397.956 50.1416 397.332C50.1416 396.756 50.5496 396.372 51.5456 396.276L53.0456 396.156V396.468C53.0456 397.572 52.3976 398.268 51.3296 398.268ZM58.8197 393.084C58.5917 393.036 58.4237 393.012 58.2197 393.012C57.4157 393.012 56.8277 393.42 56.5877 394.032L56.5157 393.144H55.4597V399H56.5877V395.892C56.5877 394.764 57.2477 394.116 58.3157 394.116H58.8197V393.084ZM61.9588 399.144C63.4108 399.144 64.3948 398.436 64.6828 397.176H63.6268C63.4348 397.848 62.8588 398.208 61.9828 398.208C60.8668 398.208 60.2188 397.524 60.1348 396.288L64.6708 396.276V395.856C64.6708 394.116 63.5788 392.964 61.9108 392.964C60.2068 392.964 59.0428 394.236 59.0428 396.072C59.0428 397.896 60.2308 399.144 61.9588 399.144ZM61.9108 393.912C62.9068 393.912 63.5428 394.56 63.5428 395.532H60.1588C60.3028 394.5 60.9268 393.912 61.9108 393.912ZM68.0427 399.144C68.9787 399.144 69.7707 398.736 70.1547 397.932L70.2507 399H71.2587V390.168H70.1427V394.08C69.7467 393.36 68.9907 392.964 68.0907 392.964C66.3507 392.964 65.3067 394.284 65.3067 396.084C65.3067 397.872 66.3387 399.144 68.0427 399.144ZM68.2707 398.124C67.1187 398.124 66.4467 397.26 66.4467 396.048C66.4467 394.848 67.1187 393.984 68.2707 393.984C69.4227 393.984 70.1307 394.848 70.1307 396.048C70.1307 397.272 69.4227 398.124 68.2707 398.124ZM77.3433 399V394.08H78.4953V393.132H77.3433V391.296H76.2153V393.132H75.0633V394.08H76.2153V399H77.3433ZM78.825 396.06C78.825 397.872 80.121 399.144 81.885 399.144C83.637 399.144 84.933 397.872 84.933 396.06C84.933 394.248 83.637 392.976 81.885 392.976C80.121 392.976 78.825 394.248 78.825 396.06ZM79.965 396.06C79.965 394.836 80.745 393.984 81.885 393.984C83.013 393.984 83.805 394.836 83.805 396.06C83.805 397.284 83.013 398.136 81.885 398.136C80.745 398.136 79.965 397.284 79.965 396.06Z" fill="#868898"/>
<path d="M18.508 406.228H16.972V415H22.18V413.584H18.508V406.228ZM24.737 415.156C25.661 415.156 26.465 414.736 26.717 414.124L26.825 415H28.109V411.4C28.109 409.756 27.125 408.892 25.529 408.892C23.921 408.892 22.865 409.732 22.865 411.016H24.113C24.113 410.392 24.593 410.032 25.457 410.032C26.201 410.032 26.681 410.356 26.681 411.16V411.292L24.905 411.424C23.501 411.532 22.709 412.216 22.709 413.308C22.709 414.424 23.477 415.156 24.737 415.156ZM25.217 414.052C24.557 414.052 24.197 413.788 24.197 413.248C24.197 412.768 24.545 412.468 25.457 412.384L26.693 412.288V412.6C26.693 413.512 26.117 414.052 25.217 414.052ZM28.8513 413.2C28.8513 414.364 29.7873 415.156 31.2633 415.156C32.7273 415.156 33.7473 414.412 33.7473 413.212C33.7473 412.3 33.2433 411.844 32.2473 411.616L31.1793 411.364C30.6753 411.244 30.4113 411.028 30.4113 410.692C30.4113 410.248 30.7473 409.984 31.3233 409.984C31.8873 409.984 32.2233 410.308 32.2353 410.812H33.6273C33.6153 409.66 32.7153 408.892 31.3833 408.892C30.0153 408.892 29.0313 409.588 29.0313 410.752C29.0313 411.7 29.5473 412.204 30.6153 412.444L31.6833 412.696C32.2113 412.816 32.3673 413.032 32.3673 413.332C32.3673 413.764 31.9953 414.04 31.3113 414.04C30.6393 414.04 30.2553 413.716 30.2433 413.2H28.8513ZM36.6379 415V410.296H37.7899V409.072H36.6379V407.224H35.1739V409.072H34.0339V410.296H35.1739V415H36.6379ZM42.9184 415V411.64C42.9184 410.68 43.4824 410.224 44.1784 410.224C44.8744 410.224 45.3184 410.668 45.3184 411.496V415H46.7824V411.64C46.7824 410.668 47.3224 410.212 48.0304 410.212C48.7264 410.212 49.1824 410.656 49.1824 411.508V415H50.6344V411.124C50.6344 409.756 49.8424 408.892 48.4024 408.892C47.5024 408.892 46.8064 409.336 46.5064 410.02C46.1944 409.336 45.5704 408.892 44.6704 408.892C43.8184 408.892 43.2184 409.276 42.9184 409.768L42.7984 409.072H41.4544V415H42.9184ZM51.4836 412.024C51.4836 413.872 52.8156 415.144 54.6516 415.144C56.4876 415.144 57.8196 413.872 57.8196 412.024C57.8196 410.176 56.4876 408.904 54.6516 408.904C52.8156 408.904 51.4836 410.176 51.4836 412.024ZM52.9476 412.024C52.9476 410.944 53.6436 410.212 54.6516 410.212C55.6596 410.212 56.3556 410.944 56.3556 412.024C56.3556 413.104 55.6596 413.836 54.6516 413.836C53.6436 413.836 52.9476 413.104 52.9476 412.024ZM60.2041 415V411.808C60.2041 410.848 60.7561 410.224 61.6561 410.224C62.4121 410.224 62.9041 410.704 62.9041 411.7V415H64.3681V411.352C64.3681 409.816 63.6001 408.892 62.1121 408.892C61.3081 408.892 60.5881 409.24 60.2161 409.84L60.0961 409.072H58.7401V415H60.2041ZM67.5825 415V410.296H68.7345V409.072H67.5825V407.224H66.1185V409.072H64.9785V410.296H66.1185V415H67.5825ZM70.8686 415V411.76C70.8686 410.872 71.4086 410.224 72.3326 410.224C73.0766 410.224 73.5686 410.704 73.5686 411.7V415H75.0326V411.352C75.0326 409.816 74.2646 408.892 72.8006 408.892C71.9486 408.892 71.2526 409.264 70.8806 409.84V406.072H69.4046V415H70.8686ZM78.7694 413.2C78.7694 414.364 79.7054 415.156 81.1814 415.156C82.6454 415.156 83.6654 414.412 83.6654 413.212C83.6654 412.3 83.1614 411.844 82.1654 411.616L81.0974 411.364C80.5934 411.244 80.3294 411.028 80.3294 410.692C80.3294 410.248 80.6654 409.984 81.2414 409.984C81.8054 409.984 82.1414 410.308 82.1534 410.812H83.5454C83.5334 409.66 82.6334 408.892 81.3014 408.892C79.9334 408.892 78.9494 409.588 78.9494 410.752C78.9494 411.7 79.4654 412.204 80.5334 412.444L81.6014 412.696C82.1294 412.816 82.2854 413.032 82.2854 413.332C82.2854 413.764 81.9134 414.04 81.2294 414.04C80.5574 414.04 80.1734 413.716 80.1614 413.2H78.7694ZM84.5401 417.748H86.0041V414.208C86.3761 414.808 87.1441 415.156 88.0321 415.156C89.7961 415.156 90.8041 413.812 90.8041 411.964C90.8041 410.104 89.7001 408.892 88.0321 408.892C87.1321 408.892 86.3521 409.288 85.9921 409.972L85.8961 409.072H84.5401V417.748ZM86.0161 412.036C86.0161 410.968 86.6761 410.224 87.6841 410.224C88.7161 410.224 89.3281 410.98 89.3281 412.036C89.3281 413.092 88.7161 413.836 87.6841 413.836C86.6761 413.836 86.0161 413.104 86.0161 412.036ZM94.3817 415.156C95.9297 415.156 97.0097 414.376 97.2617 413.08H95.9057C95.7377 413.644 95.2097 413.956 94.4057 413.956C93.4337 413.956 92.8817 413.428 92.7737 412.384L97.2377 412.372V411.928C97.2377 410.08 96.1097 408.892 94.3337 408.892C92.5937 408.892 91.3817 410.176 91.3817 412.036C91.3817 413.872 92.6177 415.156 94.3817 415.156ZM94.3457 410.092C95.2217 410.092 95.7857 410.632 95.7857 411.448H92.8097C92.9537 410.56 93.4817 410.092 94.3457 410.092ZM99.6334 415V411.808C99.6334 410.848 100.185 410.224 101.085 410.224C101.841 410.224 102.333 410.704 102.333 411.7V415H103.797V411.352C103.797 409.816 103.029 408.892 101.541 408.892C100.737 408.892 100.017 409.24 99.6454 409.84L99.5254 409.072H98.1694V415H99.6334ZM107.432 415.156C108.332 415.156 109.1 414.76 109.46 414.076L109.556 415H110.9V406.072H109.448V409.828C109.076 409.24 108.344 408.892 107.516 408.892C105.728 408.892 104.648 410.212 104.648 412.06C104.648 413.896 105.716 415.156 107.432 415.156ZM107.756 413.812C106.736 413.812 106.112 413.068 106.112 412.012C106.112 410.956 106.736 410.2 107.756 410.2C108.776 410.2 109.436 410.944 109.436 412.012C109.436 413.08 108.776 413.812 107.756 413.812ZM112.918 407.884C113.398 407.884 113.794 407.488 113.794 406.996C113.794 406.504 113.398 406.12 112.918 406.12C112.414 406.12 112.018 406.504 112.018 406.996C112.018 407.488 112.414 407.884 112.918 407.884ZM112.186 415H113.65V409.072H112.186V415ZM116.386 415V411.808C116.386 410.848 116.938 410.224 117.838 410.224C118.594 410.224 119.086 410.704 119.086 411.7V415H120.55V411.352C120.55 409.816 119.782 408.892 118.294 408.892C117.49 408.892 116.77 409.24 116.398 409.84L116.278 409.072H114.922V415H116.386ZM121.413 411.904C121.413 413.62 122.517 414.88 124.197 414.88C125.049 414.88 125.781 414.532 126.153 413.98V414.964C126.153 415.948 125.505 416.584 124.497 416.584C123.597 416.584 123.009 416.128 122.913 415.36H121.449C121.629 416.944 122.793 417.916 124.497 417.916C126.417 417.916 127.605 416.68 127.605 414.7V409.072H126.249L126.165 409.888C125.817 409.252 125.121 408.88 124.233 408.88C122.541 408.88 121.413 410.176 121.413 411.904ZM122.889 411.868C122.889 410.896 123.513 410.164 124.485 410.164C125.505 410.164 126.117 410.86 126.117 411.868C126.117 412.9 125.493 413.608 124.485 413.608C123.525 413.608 122.889 412.864 122.889 411.868Z" fill="#131316"/>
<path d="M242 408H246C246.55 408 247 407.55 247 407C247 406.45 246.55 406 246 406H242C241.45 406 241 406.45 241 407C241 407.55 241.45 408 242 408ZM241 397C241 397.55 241.45 398 242 398H258C258.55 398 259 397.55 259 397C259 396.45 258.55 396 258 396H242C241.45 396 241 396.45 241 397ZM242 403H252C252.55 403 253 402.55 253 402C253 401.45 252.55 401 252 401H242C241.45 401 241 401.45 241 402C241 402.55 241.45 403 242 403Z" fill="#5167F6"/>
<path d="M31.3334 443.333V450C31.3334 450.733 30.7334 451.333 30 451.333H19.3334C18.9667 451.333 18.6667 451.033 18.6667 450.667C18.6667 450.3 18.9667 450 19.3334 450H30V443.333C30 442.967 30.3 442.667 30.6667 442.667C31.0334 442.667 31.3334 442.967 31.3334 443.333ZM18.6667 448.667C17.56 448.667 16.6667 447.773 16.6667 446.667V442.667C16.6667 441.56 17.56 440.667 18.6667 440.667H26.6667C27.7734 440.667 28.6667 441.56 28.6667 442.667V447.333C28.6667 448.067 28.0667 448.667 27.3334 448.667H18.6667ZM20.6667 444.667C20.6667 445.773 21.56 446.667 22.6667 446.667C23.7734 446.667 24.6667 445.773 24.6667 444.667C24.6667 443.56 23.7734 442.667 22.6667 442.667C21.56 442.667 20.6667 443.56 20.6667 444.667Z" fill="#5167F6"/>
<path d="M40.204 439.644H42.772V447H44.308V439.644H46.876V438.228H40.204V439.644ZM50.5993 441.048C50.3593 440.988 50.1553 440.964 49.9513 440.964C49.1593 440.964 48.5953 441.36 48.3433 441.948L48.2593 441.084H46.8793V447H48.3433V444.12C48.3433 442.968 49.0033 442.404 50.0593 442.404H50.5993V441.048ZM52.8798 447.156C53.8038 447.156 54.6078 446.736 54.8598 446.124L54.9678 447H56.2518V443.4C56.2518 441.756 55.2678 440.892 53.6718 440.892C52.0638 440.892 51.0078 441.732 51.0078 443.016H52.2558C52.2558 442.392 52.7358 442.032 53.5998 442.032C54.3438 442.032 54.8238 442.356 54.8238 443.16V443.292L53.0478 443.424C51.6438 443.532 50.8518 444.216 50.8518 445.308C50.8518 446.424 51.6198 447.156 52.8798 447.156ZM53.3598 446.052C52.6998 446.052 52.3398 445.788 52.3398 445.248C52.3398 444.768 52.6878 444.468 53.5998 444.384L54.8358 444.288V444.6C54.8358 445.512 54.2598 446.052 53.3598 446.052ZM58.9141 447V443.808C58.9141 442.848 59.4661 442.224 60.3661 442.224C61.1221 442.224 61.6141 442.704 61.6141 443.7V447H63.0781V443.352C63.0781 441.816 62.3101 440.892 60.8221 440.892C60.0181 440.892 59.2981 441.24 58.9261 441.84L58.8061 441.072H57.4501V447H58.9141ZM63.7502 445.2C63.7502 446.364 64.6862 447.156 66.1622 447.156C67.6262 447.156 68.6462 446.412 68.6462 445.212C68.6462 444.3 68.1422 443.844 67.1462 443.616L66.0782 443.364C65.5742 443.244 65.3102 443.028 65.3102 442.692C65.3102 442.248 65.6462 441.984 66.2222 441.984C66.7862 441.984 67.1222 442.308 67.1342 442.812H68.5262C68.5142 441.66 67.6142 440.892 66.2822 440.892C64.9142 440.892 63.9302 441.588 63.9302 442.752C63.9302 443.7 64.4462 444.204 65.5142 444.444L66.5822 444.696C67.1102 444.816 67.2662 445.032 67.2662 445.332C67.2662 445.764 66.8942 446.04 66.2102 446.04C65.5382 446.04 65.1542 445.716 65.1422 445.2H63.7502ZM71.2848 447.156C72.2088 447.156 73.0128 446.736 73.2648 446.124L73.3728 447H74.6568V443.4C74.6568 441.756 73.6728 440.892 72.0768 440.892C70.4688 440.892 69.4128 441.732 69.4128 443.016H70.6608C70.6608 442.392 71.1408 442.032 72.0048 442.032C72.7488 442.032 73.2288 442.356 73.2288 443.16V443.292L71.4528 443.424C70.0488 443.532 69.2568 444.216 69.2568 445.308C69.2568 446.424 70.0248 447.156 71.2848 447.156ZM71.7648 446.052C71.1048 446.052 70.7448 445.788 70.7448 445.248C70.7448 444.768 71.0928 444.468 72.0048 444.384L73.2408 444.288V444.6C73.2408 445.512 72.6648 446.052 71.7648 446.052ZM75.5071 444.024C75.5071 445.908 76.6831 447.156 78.4831 447.156C80.0311 447.156 81.1831 446.208 81.3631 444.828H79.8871C79.7311 445.476 79.2151 445.836 78.4831 445.836C77.5471 445.836 76.9711 445.14 76.9711 444.024C76.9711 442.908 77.5951 442.2 78.5311 442.2C79.2271 442.2 79.7191 442.548 79.8871 443.22H81.3511C81.1951 441.792 80.0911 440.892 78.4711 440.892C76.7191 440.892 75.5071 442.188 75.5071 444.024ZM84.2287 447V442.296H85.3807V441.072H84.2287V439.224H82.7647V441.072H81.6247V442.296H82.7647V447H84.2287ZM86.7828 439.884C87.2628 439.884 87.6588 439.488 87.6588 438.996C87.6588 438.504 87.2628 438.12 86.7828 438.12C86.2788 438.12 85.8828 438.504 85.8828 438.996C85.8828 439.488 86.2788 439.884 86.7828 439.884ZM86.0508 447H87.5148V441.072H86.0508V447ZM88.4394 444.024C88.4394 445.872 89.7714 447.144 91.6074 447.144C93.4434 447.144 94.7754 445.872 94.7754 444.024C94.7754 442.176 93.4434 440.904 91.6074 440.904C89.7714 440.904 88.4394 442.176 88.4394 444.024ZM89.9034 444.024C89.9034 442.944 90.5994 442.212 91.6074 442.212C92.6154 442.212 93.3114 442.944 93.3114 444.024C93.3114 445.104 92.6154 445.836 91.6074 445.836C90.5994 445.836 89.9034 445.104 89.9034 444.024ZM97.1598 447V443.808C97.1598 442.848 97.7118 442.224 98.6118 442.224C99.3678 442.224 99.8598 442.704 99.8598 443.7V447H101.324V443.352C101.324 441.816 100.556 440.892 99.0678 440.892C98.2638 440.892 97.5438 441.24 97.1718 441.84L97.0518 441.072H95.6958V447H97.1598ZM101.996 445.2C101.996 446.364 102.932 447.156 104.408 447.156C105.872 447.156 106.892 446.412 106.892 445.212C106.892 444.3 106.388 443.844 105.392 443.616L104.324 443.364C103.82 443.244 103.556 443.028 103.556 442.692C103.556 442.248 103.892 441.984 104.468 441.984C105.032 441.984 105.368 442.308 105.38 442.812H106.772C106.76 441.66 105.86 440.892 104.528 440.892C103.16 440.892 102.176 441.588 102.176 442.752C102.176 443.7 102.692 444.204 103.76 444.444L104.828 444.696C105.356 444.816 105.512 445.032 105.512 445.332C105.512 445.764 105.14 446.04 104.456 446.04C103.784 446.04 103.4 445.716 103.388 445.2H101.996Z" fill="#131316"/>
<path d="M242.504 447.144C244.376 447.144 245.66 445.884 245.66 444.084C245.66 442.416 244.52 441.18 242.756 441.18C242.108 441.18 241.532 441.36 241.076 441.708L241.652 439.404H245.144V438.324H240.8L239.744 442.776L240.74 443.028C241.136 442.536 241.808 442.188 242.54 442.188C243.752 442.188 244.46 443.016 244.46 444.132C244.46 445.308 243.704 446.088 242.528 446.088C241.424 446.088 240.74 445.404 240.74 444.288H239.576C239.576 446.016 240.728 447.144 242.504 447.144ZM246.438 442.668C246.438 445.368 247.77 447.156 250.014 447.156C252.246 447.156 253.578 445.368 253.578 442.668C253.578 439.98 252.186 438.156 250.014 438.156C247.83 438.156 246.438 439.98 246.438 442.668ZM247.602 442.668C247.602 440.508 248.49 439.212 250.014 439.212C251.538 439.212 252.414 440.508 252.414 442.668C252.414 444.804 251.538 446.1 250.014 446.1C248.49 446.1 247.602 444.804 247.602 442.668ZM258.814 440.376C258.814 439.08 257.902 438.156 256.618 438.156C255.346 438.156 254.434 439.08 254.434 440.376C254.434 441.66 255.346 442.584 256.618 442.584C257.902 442.584 258.814 441.66 258.814 440.376ZM263.386 438.336H262.234L255.646 447H256.798L263.386 438.336ZM257.89 440.376C257.89 441.144 257.362 441.684 256.618 441.684C255.874 441.684 255.358 441.144 255.358 440.376C255.358 439.596 255.874 439.056 256.618 439.056C257.374 439.056 257.89 439.596 257.89 440.376ZM264.622 444.948C264.622 443.652 263.698 442.74 262.426 442.74C261.154 442.74 260.23 443.652 260.23 444.948C260.23 446.232 261.154 447.156 262.426 447.156C263.698 447.156 264.622 446.232 264.622 444.948ZM263.686 444.948C263.686 445.716 263.17 446.256 262.426 446.256C261.682 446.256 261.166 445.716 261.166 444.948C261.166 444.168 261.682 443.628 262.426 443.628C263.182 443.628 263.686 444.168 263.686 444.948Z" fill="#131316"/>
<rect x="40" y="454" width="226" height="4" rx="2" fill="#F4F4F6"/>
<rect x="40" y="454" width="107" height="4" rx="2" fill="#5167F6"/>
<path d="M30 479.473C29.9133 479.473 29.8267 479.507 29.7667 479.573L29.24 480.1C29.1067 480.233 28.9 480.233 28.7667 480.1L28.24 479.573C28.1067 479.44 27.9 479.44 27.7667 479.573L27.24 480.1C27.1067 480.233 26.9 480.233 26.7667 480.1L26.24 479.573C26.1067 479.44 25.9 479.44 25.7667 479.573L25.24 480.1C25.1067 480.233 24.9 480.233 24.7667 480.1L24.24 479.573C24.1067 479.44 23.9 479.44 23.7667 479.573L23.24 480.1C23.1067 480.233 22.9 480.233 22.7667 480.1L22.2333 479.567C22.1 479.433 21.8933 479.433 21.76 479.567L21.2333 480.1C21.1 480.233 20.8933 480.233 20.76 480.1L20.2333 479.567C20.1 479.433 19.8933 479.433 19.76 479.567L19.2333 480.1C19.1 480.233 18.8933 480.233 18.76 480.1L18.2333 479.567C18.1733 479.507 18.0867 479.473 18 479.473V492.533C18.0867 492.533 18.1733 492.5 18.2333 492.433L18.76 491.907C18.8933 491.773 19.1 491.773 19.2333 491.907L19.76 492.433C19.8933 492.567 20.1 492.567 20.2333 492.433L20.76 491.907C20.8933 491.773 21.1 491.773 21.2333 491.907L21.76 492.433C21.8933 492.567 22.1 492.567 22.2333 492.433L22.76 491.907C22.8933 491.773 23.1 491.773 23.2333 491.907L23.76 492.433C23.8933 492.567 24.1 492.567 24.2333 492.433L24.76 491.907C24.8933 491.773 25.1 491.773 25.2333 491.907L25.76 492.433C25.8933 492.567 26.1 492.567 26.2333 492.433L26.76 491.907C26.8933 491.773 27.1 491.773 27.2333 491.907L27.76 492.433C27.8933 492.567 28.1 492.567 28.2333 492.433L28.76 491.907C28.8933 491.773 29.1 491.773 29.2333 491.907L29.76 492.433C29.8267 492.5 29.9133 492.533 29.9933 492.533V479.473H30ZM27.3333 489.333H20.6667C20.3 489.333 20 489.033 20 488.667C20 488.3 20.3 488 20.6667 488H27.3333C27.7 488 28 488.3 28 488.667C28 489.033 27.7 489.333 27.3333 489.333ZM27.3333 486.667H20.6667C20.3 486.667 20 486.367 20 486C20 485.633 20.3 485.333 20.6667 485.333H27.3333C27.7 485.333 28 485.633 28 486C28 486.367 27.7 486.667 27.3333 486.667ZM27.3333 484H20.6667C20.3 484 20 483.7 20 483.333C20 482.967 20.3 482.667 20.6667 482.667H27.3333C27.7 482.667 28 482.967 28 483.333C28 483.7 27.7 484 27.3333 484Z" fill="#F6D550"/>
<path d="M42.508 478.228H40.972V487H42.508V478.228ZM45.4605 487V483.808C45.4605 482.848 46.0125 482.224 46.9125 482.224C47.6685 482.224 48.1605 482.704 48.1605 483.7V487H49.6245V483.352C49.6245 481.816 48.8565 480.892 47.3685 480.892C46.5645 480.892 45.8445 481.24 45.4725 481.84L45.3525 481.072H43.9965V487H45.4605ZM52.3857 487H53.8257L56.2977 481.072H54.7857L53.7057 483.796C53.4537 484.444 53.2377 485.068 53.1537 485.44C53.0817 485.116 52.8777 484.504 52.6257 483.796L51.5937 481.072H50.0337L52.3857 487ZM56.2583 484.024C56.2583 485.872 57.5903 487.144 59.4263 487.144C61.2623 487.144 62.5943 485.872 62.5943 484.024C62.5943 482.176 61.2623 480.904 59.4263 480.904C57.5903 480.904 56.2583 482.176 56.2583 484.024ZM57.7223 484.024C57.7223 482.944 58.4183 482.212 59.4263 482.212C60.4343 482.212 61.1303 482.944 61.1303 484.024C61.1303 485.104 60.4343 485.836 59.4263 485.836C58.4183 485.836 57.7223 485.104 57.7223 484.024ZM64.2468 479.884C64.7268 479.884 65.1228 479.488 65.1228 478.996C65.1228 478.504 64.7268 478.12 64.2468 478.12C63.7428 478.12 63.3468 478.504 63.3468 478.996C63.3468 479.488 63.7428 479.884 64.2468 479.884ZM63.5148 487H64.9788V481.072H63.5148V487ZM65.9033 484.024C65.9033 485.908 67.0793 487.156 68.8793 487.156C70.4273 487.156 71.5793 486.208 71.7593 484.828H70.2833C70.1273 485.476 69.6113 485.836 68.8793 485.836C67.9433 485.836 67.3673 485.14 67.3673 484.024C67.3673 482.908 67.9913 482.2 68.9273 482.2C69.6233 482.2 70.1153 482.548 70.2833 483.22H71.7473C71.5913 481.792 70.4873 480.892 68.8673 480.892C67.1153 480.892 65.9033 482.188 65.9033 484.024ZM75.261 487.156C76.809 487.156 77.889 486.376 78.141 485.08H76.785C76.617 485.644 76.089 485.956 75.285 485.956C74.313 485.956 73.761 485.428 73.653 484.384L78.117 484.372V483.928C78.117 482.08 76.989 480.892 75.213 480.892C73.473 480.892 72.261 482.176 72.261 484.036C72.261 485.872 73.497 487.156 75.261 487.156ZM75.225 482.092C76.101 482.092 76.665 482.632 76.665 483.448H73.689C73.833 482.56 74.361 482.092 75.225 482.092Z" fill="#131316"/>
<path d="M243.072 482.512C244.452 482.512 245.172 483.208 245.172 484.252C245.172 485.368 244.44 486.088 243.312 486.088C242.22 486.088 241.524 485.428 241.524 484.3H240.36C240.36 486.1 241.584 487.144 243.288 487.144C245.052 487.144 246.372 486.028 246.372 484.276C246.372 482.716 245.256 481.72 243.78 481.54L246.156 479.272V478.324H240.768V479.368H244.668L242.208 481.732V482.512H243.072ZM247.168 482.668C247.168 485.368 248.5 487.156 250.744 487.156C252.976 487.156 254.308 485.368 254.308 482.668C254.308 479.98 252.916 478.156 250.744 478.156C248.56 478.156 247.168 479.98 247.168 482.668ZM248.332 482.668C248.332 480.508 249.22 479.212 250.744 479.212C252.268 479.212 253.144 480.508 253.144 482.668C253.144 484.804 252.268 486.1 250.744 486.1C249.22 486.1 248.332 484.804 248.332 482.668ZM259.545 480.376C259.545 479.08 258.633 478.156 257.349 478.156C256.077 478.156 255.165 479.08 255.165 480.376C255.165 481.66 256.077 482.584 257.349 482.584C258.633 482.584 259.545 481.66 259.545 480.376ZM264.117 478.336H262.965L256.377 487H257.529L264.117 478.336ZM258.621 480.376C258.621 481.144 258.093 481.684 257.349 481.684C256.605 481.684 256.089 481.144 256.089 480.376C256.089 479.596 256.605 479.056 257.349 479.056C258.105 479.056 258.621 479.596 258.621 480.376ZM265.353 484.948C265.353 483.652 264.429 482.74 263.157 482.74C261.885 482.74 260.961 483.652 260.961 484.948C260.961 486.232 261.885 487.156 263.157 487.156C264.429 487.156 265.353 486.232 265.353 484.948ZM264.417 484.948C264.417 485.716 263.901 486.256 263.157 486.256C262.413 486.256 261.897 485.716 261.897 484.948C261.897 484.168 262.413 483.628 263.157 483.628C263.913 483.628 264.417 484.168 264.417 484.948Z" fill="#131316"/>
<rect x="40" y="494" width="226" height="4" rx="2" fill="#F4F4F6"/>
<rect x="40" y="494" width="64" height="4" rx="2" fill="#F6D550"/>
<path d="M29.0067 520.053L18.0533 531.007C18.1133 531.233 18.2333 531.44 18.3933 531.607C18.56 531.767 18.7667 531.887 18.9933 531.947L29.9533 520.993C29.8267 520.533 29.4667 520.173 29.0067 520.053ZM23.92 520L18 525.92V527.807L25.8067 520H23.92ZM19.3333 520C18.6 520 18 520.6 18 521.333V522.667L20.6667 520H19.3333ZM28.6667 532C29.0333 532 29.3667 531.853 29.6067 531.607C29.8533 531.367 30 531.033 30 530.667V529.333L27.3333 532H28.6667ZM22.1933 532H24.08L30 526.08V524.193L22.1933 532Z" fill="#7EC897"/>
<path d="M48.976 522.608C48.976 519.932 47.224 518.072 44.716 518.072C42.208 518.072 40.468 519.944 40.468 522.608C40.468 525.284 42.196 527.144 44.704 527.144C47.224 527.144 48.976 525.272 48.976 522.608ZM47.356 522.608C47.356 524.456 46.324 525.668 44.716 525.668C43.108 525.668 42.076 524.48 42.076 522.608C42.076 520.736 43.108 519.548 44.716 519.548C46.324 519.548 47.356 520.736 47.356 522.608ZM51.9656 527V522.296H53.1176V521.072H51.9656V519.224H50.5016V521.072H49.3616V522.296H50.5016V527H51.9656ZM55.2517 527V523.76C55.2517 522.872 55.7917 522.224 56.7157 522.224C57.4597 522.224 57.9517 522.704 57.9517 523.7V527H59.4157V523.352C59.4157 521.816 58.6477 520.892 57.1837 520.892C56.3317 520.892 55.6357 521.264 55.2637 521.84V518.072H53.7877V527H55.2517ZM63.2661 527.156C64.8141 527.156 65.8941 526.376 66.1461 525.08H64.7901C64.6221 525.644 64.0941 525.956 63.2901 525.956C62.3181 525.956 61.7661 525.428 61.6581 524.384L66.1221 524.372V523.928C66.1221 522.08 64.9941 520.892 63.2181 520.892C61.4781 520.892 60.2661 522.176 60.2661 524.036C60.2661 525.872 61.5021 527.156 63.2661 527.156ZM63.2301 522.092C64.1061 522.092 64.6701 522.632 64.6701 523.448H61.6941C61.8381 522.56 62.3661 522.092 63.2301 522.092ZM70.7738 521.048C70.5338 520.988 70.3298 520.964 70.1258 520.964C69.3338 520.964 68.7698 521.36 68.5178 521.948L68.4338 521.084H67.0538V527H68.5178V524.12C68.5178 522.968 69.1778 522.404 70.2338 522.404H70.7738V521.048Z" fill="#131316"/>
<path d="M246.408 526.988V525.896H242.4L244.2 524.336C245.736 523.004 246.348 522.128 246.348 520.892C246.348 519.224 245.232 518.168 243.492 518.168C241.728 518.168 240.552 519.38 240.516 521.24H241.692C241.716 520.004 242.412 519.224 243.48 519.224C244.524 519.224 245.148 519.872 245.148 520.964C245.148 521.888 244.752 522.476 243.348 523.688L240.552 526.1V527L246.408 526.988ZM247.25 522.668C247.25 525.368 248.582 527.156 250.826 527.156C253.058 527.156 254.39 525.368 254.39 522.668C254.39 519.98 252.998 518.156 250.826 518.156C248.642 518.156 247.25 519.98 247.25 522.668ZM248.414 522.668C248.414 520.508 249.302 519.212 250.826 519.212C252.35 519.212 253.226 520.508 253.226 522.668C253.226 524.804 252.35 526.1 250.826 526.1C249.302 526.1 248.414 524.804 248.414 522.668ZM259.627 520.376C259.627 519.08 258.715 518.156 257.431 518.156C256.159 518.156 255.247 519.08 255.247 520.376C255.247 521.66 256.159 522.584 257.431 522.584C258.715 522.584 259.627 521.66 259.627 520.376ZM264.199 518.336H263.047L256.459 527H257.611L264.199 518.336ZM258.703 520.376C258.703 521.144 258.175 521.684 257.431 521.684C256.687 521.684 256.171 521.144 256.171 520.376C256.171 519.596 256.687 519.056 257.431 519.056C258.187 519.056 258.703 519.596 258.703 520.376ZM265.435 524.948C265.435 523.652 264.511 522.74 263.239 522.74C261.967 522.74 261.043 523.652 261.043 524.948C261.043 526.232 261.967 527.156 263.239 527.156C264.511 527.156 265.435 526.232 265.435 524.948ZM264.499 524.948C264.499 525.716 263.983 526.256 263.239 526.256C262.495 526.256 261.979 525.716 261.979 524.948C261.979 524.168 262.495 523.628 263.239 523.628C263.995 523.628 264.499 524.168 264.499 524.948Z" fill="#131316"/>
<rect x="40" y="534" width="226" height="4" rx="2" fill="#F4F4F6"/>
<rect x="40" y="534" width="32" height="4" rx="2" fill="#7EC897"/>
<defs>
<clipPath id="clip0_161_1912">
<rect width="250" height="250" fill="white" transform="translate(16 120)"/>
</clipPath>
</defs>
</svg>
