<svg width="34" height="20" viewBox="0 0 34 20" fill="none" xmlns="http://www.w3.org/2000/svg">
<g clip-path="url(#clip0_161_1276)">
<path d="M5.89491 1.17836V1.5331L6.21991 1.61135C6.73575 1.73655 6.79768 2.04434 6.99885 3.00944L7.51469 5.73258L6.06514 13.6777L4.07395 3.69283C3.84698 2.59731 3.77476 1.7835 4.58981 1.60613L4.96638 1.52788V1.17836H0.251495V1.5331L0.731237 1.64786C1.21098 1.77307 1.41216 2.0026 1.73715 3.50503L4.93543 18.8162H5.76079L7.90159 7.25068L10.2745 18.8162H10.9296L14.0247 3.97975C14.3755 2.27388 14.5406 1.78872 15.1338 1.63221L15.6136 1.50701V1.17836H12.1161V1.5331L12.6319 1.63743C13.3851 1.78871 13.5656 2.27388 13.2097 4.24581L11.3268 13.6881L9.41815 3.70327C9.21183 2.71208 9.08803 1.79393 9.93405 1.61656L10.486 1.51223V1.15749L5.89491 1.17836ZM28.3035 1.22531V1.58526L28.9328 1.73655C29.4848 1.86175 29.7118 2.0652 29.7118 2.7799V15.1332C29.7118 16.5104 29.7118 18.3154 28.3035 18.3154C27.4988 18.3154 26.8695 17.6059 26.9159 17.1208C26.9674 16.3331 28.3293 16.38 28.4015 15.1071C28.4309 14.9475 28.4269 14.7834 28.3899 14.6255C28.3528 14.4675 28.2835 14.3191 28.1863 14.1899C28.0891 14.0607 27.9663 13.9534 27.8256 13.8751C27.685 13.7968 27.5298 13.7491 27.3698 13.7351C26.5909 13.6308 25.6314 14.2933 25.6056 15.6184C25.6056 17.3242 26.6889 18.8788 28.5769 18.8788C30.6661 18.8788 32.0331 17.4494 32.0331 14.7054V2.80598C32.0331 2.09129 32.2085 1.86175 32.7089 1.76263L33.266 1.57483V1.22009L28.3035 1.22531ZM19.8178 1.12619C17.677 1.12619 16.4699 2.9364 16.4699 5.29959C16.4699 9.70778 22.0875 11.4137 22.0875 15.3888C22.0875 17.272 21.3034 18.3154 20.1737 18.3154C18.4869 18.3154 17.2798 16.2548 16.9754 12.9682H16.5989V18.7693H16.9032C17.156 17.9346 17.4809 17.8511 17.7595 17.8511C18.2393 17.8511 18.7396 18.8684 20.1995 18.8684C22.4434 18.8684 23.9033 16.9121 23.9033 14.2098C23.9033 8.90962 18.3063 7.61064 18.3063 3.81803C18.3063 2.95205 18.5591 1.67917 19.8178 1.67917C21.6335 1.67917 22.397 4.09452 22.7169 7.02634H23.0934V1.22009H22.7942C22.6652 1.77828 22.4383 2.0339 22.1133 2.0339C21.5304 2.0339 21.2363 1.12097 19.8435 1.12097L19.8178 1.12619ZM23.8723 6.12384V6.18644V6.13428V6.12384Z" fill="#868898"/>
</g>
<defs>
<clipPath id="clip0_161_1276">
<rect width="33.3632" height="18.3498" fill="white" transform="translate(0.228699 0.825134)"/>
</clipPath>
</defs>
</svg>
